<svg xmlns="http://www.w3.org/2000/svg" viewBox="0 0 190.99 196.38"><defs><style>.cls-1{fill:none;stroke:#212683;stroke-miterlimit:10;stroke-width:6px;}.cls-2{fill:#212683;}.cls-3{fill:#1f268e;}</style></defs><title>Web</title><g id="Layer_2" data-name="Layer 2"><g id="Layer_1-2" data-name="Layer 1"><path class="cls-1" d="M117.1,49.41H106.6a1.32,1.32,0,0,1-1.32-1.32V37.6A1.32,1.32,0,0,0,104,36.28H90.07a1.32,1.32,0,0,0-1.32,1.32V48.09a1.32,1.32,0,0,1-1.32,1.32H76.94a1.32,1.32,0,0,0-1.32,1.32v13.9a1.32,1.32,0,0,0,1.32,1.32H87.43a1.32,1.32,0,0,1,1.32,1.32V77.76a1.32,1.32,0,0,0,1.32,1.32H104a1.32,1.32,0,0,0,1.32-1.32V67.26a1.32,1.32,0,0,1,1.32-1.32H117.1a1.32,1.32,0,0,0,1.32-1.32V50.73A1.32,1.32,0,0,0,117.1,49.41Z"/><path class="cls-1" d="M149.42,29.87h30.43A8.15,8.15,0,0,1,188,38v93.24a8.14,8.14,0,0,1-8.14,8.13H63.09"/><path class="cls-1" d="M29.39,139.38H14.19A8.14,8.14,0,0,1,6,131.25V38a8.15,8.15,0,0,1,8.14-8.14H44.62"/><rect class="cls-1" x="88.35" y="139.38" width="17.33" height="36.67"/><path class="cls-1" d="M80.1,176h33.83a10.75,10.75,0,0,1,10.75,10.75v6.58a0,0,0,0,1,0,0H69.35a0,0,0,0,1,0,0V186.8A10.75,10.75,0,0,1,80.1,176Z"/><line class="cls-1" x1="34.77" y1="193.38" x2="159.27" y2="193.38"/><rect class="cls-1" x="44.62" y="6.05" width="104.8" height="90" rx="5.33" ry="5.33"/><line class="cls-1" x1="44.62" y1="21.71" x2="149.42" y2="21.71"/><circle class="cls-2" cx="56.79" cy="13.92" r="2.5"/><circle class="cls-2" cx="67.38" cy="13.92" r="2.5"/><circle class="cls-2" cx="77.96" cy="13.92" r="2.5"/><path class="cls-3" d="M10,4l-1.75,0,0-1.75A2.15,2.15,0,0,0,4,2.11l0,1.75-1.75,0a2.15,2.15,0,1,0-.08,4.3l1.75,0,0,1.75a2.15,2.15,0,0,0,4.3.08l0-1.75,1.75,0A2.15,2.15,0,0,0,10,4Z"/><path class="cls-3" d="M183.9,4l-1.75,0,0-1.75a2.15,2.15,0,0,0-4.3-.08l0,1.75-1.75,0a2.15,2.15,0,1,0-.08,4.3l1.75,0,0,1.75A2.15,2.15,0,0,0,182,10l0-1.75,1.75,0A2.15,2.15,0,0,0,183.9,4Z"/><path class="cls-3" d="M149.31,166.13l-2.1,0,0-2.1a2.59,2.59,0,0,0-5.17-.1l0,2.1-2.1,0a2.59,2.59,0,1,0-.1,5.17l2.1,0,0,2.1a2.59,2.59,0,0,0,5.17.1l0-2.1,2.1,0a2.59,2.59,0,0,0,.1-5.17Z"/><circle class="cls-2" cx="45.78" cy="139.38" r="3.29"/><line class="cls-1" x1="6.05" y1="120.05" x2="187.99" y2="120.05"/><path class="cls-1" d="M28.79,42.3H20.33a1.92,1.92,0,0,0-1.92,1.92v9.71"/><line class="cls-1" x1="59.29" y1="23.05" x2="59.29" y2="73.71"/><line class="cls-1" x1="59.29" y1="79.08" x2="59.29" y2="84.62"/></g></g></svg>