<svg width="58.57mm" height="61.07mm" version="1.1" viewBox="0 0 58.57 61.07" xmlns="http://www.w3.org/2000/svg">
 <g transform="translate(-73.82 -38.788)">
  <g transform="matrix(.050864 0 0 -.050864 -696.7 153.05)">
   <path d="m16272 1462.1c0.1-30.17-10.5-57.29-27.1-76.57-8.2-9.64-17.9-17.34-28.5-22.54-10.6-5.27-22.2-8.05-34.3-8.12h-390.6c-3.6 0-7.2-1.45-9.8-4.02s-4-6.17-4-9.78v-240.87l-191.6 249.26c-2.6 3.4-6.6 5.41-10.9 5.41h-309.6c-12.1 0.07-23.6 2.85-34.2 8.12-16.1 7.83-29.9 21.22-39.9 38.42-9.9 17.13-15.9 38.08-15.9 60.69v649.59c0 30.17 10.6 57.36 27.1 76.64 8.3 9.57 18 17.27 28.7 22.47 10.6 5.27 22.1 8.12 34.2 8.12h916.5c12.1 0 23.7-2.85 34.3-8.12 15.9-7.83 29.8-21.15 39.8-38.35 9.9-17.2 15.8-38.08 15.8-60.76zm-43.4 773.46c-14.2 7.01-30 10.89-46.5 10.89h-916.5c-16.5 0-32.3-3.88-46.5-10.89-21.3-10.54-39.1-27.88-51.5-49.31s-19.5-47.09-19.5-74.56v-649.59c0-36.55 12.7-69.98 33.7-94.47 10.5-12.27 23.1-22.4 37.3-29.4 14.2-7.01 30-10.96 46.5-10.96h302.8l212.1-276.11c3.6-4.65 9.8-6.52 15.4-4.65 5.7 1.94 9.4 7.15 9.4 13.04v267.79l376.8-0.07c16.5 0 32.3 3.95 46.5 10.96 21.3 10.54 39 27.88 51.4 49.31 12.5 21.43 19.6 47.09 19.6 74.56v649.59c0 36.62-12.7 69.99-33.6 94.54-10.6 12.27-23.2 22.33-37.4 29.33"/>
  </g>
  <g transform="matrix(.050221 0 0 -.050221 -696.7 153.05)">
   <path d="m16170 1579c-62.7-62.8-149.3-101.51-245-101.51-95.8 0-182.3 38.71-245.1 101.51-62.8 62.72-101.5 149.26-101.5 245.01 0 95.74 38.7 182.28 101.5 245.08 62.8 62.73 149.3 101.5 245.1 101.5 95.7 0 182.3-38.77 245-101.5 62.8-62.8 101.5-149.34 101.6-245.08-0.1-95.75-38.8-182.29-101.6-245.01zm-245 619.55c-103.4 0-197.1-41.94-264.8-109.72-67.8-67.72-109.7-161.42-109.7-264.82 0-103.33 41.9-197.11 109.7-264.83 67.7-67.78 161.4-109.65 264.8-109.65s197.1 41.87 264.8 109.65c67.8 67.72 109.7 161.5 109.7 264.83 0 103.4-41.9 197.1-109.7 264.82-67.7 67.78-161.4 109.72-264.8 109.72"/>
  </g>
  <g transform="matrix(.049721 0 0 -.049721 -696.7 153.05)">
   <path d="m16272 1793.6h-123.1c-3.7 0-7.3-1.49-10-4.12-2.6-2.62-4.2-6.31-4.2-10v-123.1h-97.6v123.1c0 3.69-1.5 7.38-4.1 10-2.6 2.63-6.2 4.12-10 4.12h-123v97.7h123c3.8 0 7.4 1.42 10 4.04 2.6 2.7 4.1 6.32 4.1 10.01v123.1h97.6v-123.1c0-3.69 1.6-7.31 4.2-10.01 2.7-2.62 6.3-4.04 10-4.04h123.1zm14.1 125.87h-123v123.1c0 3.69-1.6 7.37-4.2 10-2.7 2.55-6.3 4.12-10 4.12h-125.9c-3.7 0-7.3-1.57-9.9-4.12-2.7-2.63-4.2-6.31-4.2-10v-123.1h-123.1c-3.6 0-7.3-1.49-9.9-4.12-2.7-2.62-4.2-6.24-4.2-10v-125.87c0-3.69 1.5-7.38 4.2-9.93 2.6-2.63 6.3-4.19 9.9-4.19h123.1v-123.1c0-3.69 1.5-7.31 4.2-9.93 2.6-2.63 6.2-4.12 9.9-4.12h125.9c3.7 0 7.3 1.49 10 4.12 2.6 2.62 4.2 6.24 4.2 9.93v123.1h123c3.7 0 7.3 1.56 10 4.19 2.6 2.55 4.1 6.24 4.1 9.93v125.87c0 3.76-1.5 7.38-4.1 10-2.7 2.63-6.3 4.12-10 4.12"/>
  </g>
 </g>
</svg>
