<svg width="58.57mm" height="61.07mm" version="1.1" viewBox="0 0 58.57 61.07" xmlns="http://www.w3.org/2000/svg">
  <defs>
    <radialGradient gradientUnits="userSpaceOnUse" cx="15925" cy="1824.04" r="374.5" id="gradient-0" spreadMethod="pad">
      <stop offset="0" style="stop-color: rgba(144, 191, 36, 1)"></stop>
      <stop offset="1" style="stop-color: rgba(80, 105, 20, 1)"></stop>
    </radialGradient>
    <linearGradient gradientUnits="userSpaceOnUse" x1="15925" y1="1449.53" x2="15925" y2="2198.55" id="gradient-1">
      <stop offset="0" style="stop-color: #bada55"></stop>
      <stop offset="1" style="stop-color: #758d29"></stop>
    </linearGradient>
  </defs>
  <g transform="translate(-73.82 -38.788)" fill="#C9DEA1">
    <g transform="matrix(.050864 0 0 -.050864 -696.7 153.05)" fill="#C9DEA1">
      <path d="M 16228.6 2235.56 C 16214.4 2242.57 16198.6 2246.45 16182.1 2246.45 L 15265.6 2246.45 C 15249.1 2246.45 15233.3 2242.57 15219.1 2235.56 C 15197.8 2225.02 15180 2207.68 15167.6 2186.25 C 15155.2 2164.82 15148.1 2139.16 15148.1 2111.69 L 15148.1 1462.1 C 15148.1 1425.55 15160.8 1392.12 15181.8 1367.63 C 15192.3 1355.36 15204.9 1345.23 15219.1 1338.23 C 15233.3 1331.22 15249.1 1327.27 15265.6 1327.27 L 15568.4 1327.27 L 15780.5 1051.16 C 15784.1 1046.51 15790.3 1044.64 15795.9 1046.51 C 15801.6 1048.45 15805.3 1053.66 15805.3 1059.55 L 15805.3 1327.34 L 16182.1 1327.27 C 16198.6 1327.27 16214.4 1331.22 16228.6 1338.23 C 16249.9 1348.77 16267.6 1366.11 16280 1387.54 C 16292.5 1408.97 16299.6 1434.63 16299.6 1462.1 L 16299.6 2111.69 C 16299.6 2148.31 16286.9 2181.68 16266 2206.23 C 16255.4 2218.5 16242.8 2228.56 16228.6 2235.56" style=""></path>
    </g>
    <g transform="matrix(.050221 0 0 -.050221 -696.7 153.05)">
      <path d="M 15925 2198.55 C 15821.6 2198.55 15727.9 2156.61 15660.2 2088.83 C 15592.4 2021.11 15550.5 1927.41 15550.5 1824.01 C 15550.5 1720.68 15592.4 1626.9 15660.2 1559.18 C 15727.9 1491.4 15821.6 1449.53 15925 1449.53 C 16028.4 1449.53 16122.1 1491.4 16189.8 1559.18 C 16257.6 1626.9 16299.5 1720.68 16299.5 1824.01 C 16299.5 1927.41 16257.6 2021.11 16189.8 2088.83 C 16122.1 2156.61 16028.4 2198.55 15925 2198.55" style="stroke: rgb(186, 218, 85); fill-rule: nonzero; fill: rgb(25, 92, 163);"></path>
    </g>
    <g transform="matrix(.049721 0 0 -.049721 -696.7 153.05)" fill="#CFADDF">
      <path d="M 16286.1 1919.47 L 16163.1 1919.47 L 16163.1 2042.57 C 16163.1 2046.26 16161.5 2049.94 16158.9 2052.57 C 16156.2 2055.12 16152.6 2056.69 16148.9 2056.69 L 16023 2056.69 C 16019.3 2056.69 16015.7 2055.12 16013.1 2052.57 C 16010.4 2049.94 16008.9 2046.26 16008.9 2042.57 L 16008.9 1919.47 L 15885.8 1919.47 C 15882.2 1919.47 15878.5 1917.98 15875.9 1915.35 C 15873.2 1912.73 15871.7 1909.11 15871.7 1905.35 L 15871.7 1779.48 C 15871.7 1775.79 15873.2 1772.1 15875.9 1769.55 C 15878.5 1766.92 15882.2 1765.36 15885.8 1765.36 L 16008.9 1765.36 L 16008.9 1642.26 C 16008.9 1638.57 16010.4 1634.95 16013.1 1632.33 C 16015.7 1629.7 16019.3 1628.21 16023 1628.21 L 16148.9 1628.21 C 16152.6 1628.21 16156.2 1629.7 16158.9 1632.33 C 16161.5 1634.95 16163.1 1638.57 16163.1 1642.26 L 16163.1 1765.36 L 16286.1 1765.36 C 16289.8 1765.36 16293.4 1766.92 16296.1 1769.55 C 16298.7 1772.1 16300.2 1775.79 16300.2 1779.48 L 16300.2 1905.35 C 16300.2 1909.11 16298.7 1912.73 16296.1 1915.35 C 16293.4 1917.98 16289.8 1919.47 16286.1 1919.47" style="fill: rgb(201, 222, 161);"></path>
    </g>
  </g>
</svg>