<?xml version="1.0" encoding="UTF-8"?>
<!-- Created with Inkscape (http://www.inkscape.org/) -->
<svg width="56.318mm" height="61.07mm" version="1.1" viewBox="0 0 56.318 61.07" xmlns="http://www.w3.org/2000/svg">
 <g transform="translate(-23.218 -64.477)">
  <g transform="matrix(.055241 0 0 -.055241 -838.92 385.14)">
   <path d="m16228 5118.6c-28.6-28.6-68-46.28-111.6-46.28-43.7 0-83.1 17.68-111.7 46.28-28.6 28.63-46.3 68-46.3 111.67 0 43.66 17.7 83.07 46.3 111.71 28.6 28.6 68 46.27 111.7 46.27 43.6 0 83-17.67 111.6-46.27 28.7-28.64 46.3-68.05 46.3-111.71 0-43.67-17.6-83.04-46.3-111.67zm-111.6 295.03c-50.6 0-96.5-20.57-129.7-53.7-33.1-33.14-53.7-79.09-53.7-129.66 0-50.58 20.6-96.49 53.7-129.62 33.2-33.18 79.1-53.71 129.7-53.71 50.5 0 96.4 20.53 129.6 53.71 33.2 33.13 53.7 79.04 53.7 129.62 0 50.57-20.5 96.52-53.7 129.66-33.2 33.13-79.1 53.7-129.6 53.7"/>
  </g>
  <g transform="matrix(.05635 0 0 -.05635 -838.92 385.14)">
   <path d="m15421 4631.7v537.77c0 3.32-1.3 6.5-3.6 8.82-2.4 2.33-5.6 3.63-8.8 3.63h-66.4l473.3 478.19 442.8-478.19h-67.7c-3.3 0-6.5-1.3-8.8-3.63-2.4-2.32-3.7-5.5-3.7-8.82v-537.77zm865.8-24.9c6.9 0 12.5 5.57 12.5 12.42 0 6.88-5.6 12.48-12.5 12.48h-83.8v525.33h83.8c4.9 0 9.4 2.92 11.4 7.48 2 4.53 1.1 9.77-2.3 13.43l-470.9 508.64c-2.3 2.44-5.7 3.94-9 3.98-3.4 0.07-6.7-1.3-9.1-3.67l-503.4-508.63c-3.5-3.59-4.6-8.9-2.7-13.55 2-4.68 6.5-7.68 11.5-7.68h83.8v-525.33h-83.8c-6.8 0-12.4-5.6-12.4-12.48 0-6.85 5.6-12.42 12.4-12.42h974.5"/>
  </g>
 </g>
</svg>
