<svg width="46" height="40" viewBox="0 0 46 40" fill="none" xmlns="http://www.w3.org/2000/svg">
<path d="M24.2498 36.7264C34.3925 36.7264 42.6148 28.5049 42.6148 18.3632C42.6148 8.22148 34.3925 0 24.2498 0C14.1071 0 5.88477 8.22148 5.88477 18.3632C5.88477 28.5049 14.1071 36.7264 24.2498 36.7264Z" fill="#195CA3"/>
<path d="M24.2496 34.1031C32.9434 34.1031 39.9911 27.0561 39.9911 18.3632C39.9911 9.67027 32.9434 2.62329 24.2496 2.62329C15.5559 2.62329 8.50818 9.67027 8.50818 18.3632C8.50818 27.0561 15.5559 34.1031 24.2496 34.1031Z" fill="#C9DEA1"/>
<path d="M25.5614 5.24672C25.5614 4.52231 24.9741 3.93506 24.2497 3.93506C23.5252 3.93506 22.9379 4.52231 22.9379 5.24672C22.9379 5.97112 23.5252 6.55837 24.2497 6.55837C24.9741 6.55837 25.5614 5.97112 25.5614 5.24672Z" fill="#195CA3"/>
<path d="M25.5614 31.4797C25.5614 30.7553 24.9741 30.1681 24.2497 30.1681C23.5252 30.1681 22.9379 30.7553 22.9379 31.4797C22.9379 32.2042 23.5252 32.7914 24.2497 32.7914C24.9741 32.7914 25.5614 32.2042 25.5614 31.4797Z" fill="#195CA3"/>
<path d="M11.1319 17.0515C10.4074 17.0515 9.82007 17.6387 9.82007 18.3631C9.82007 19.0876 10.4074 19.6748 11.1319 19.6748C11.8563 19.6748 12.4436 19.0876 12.4436 18.3631C12.4436 17.6387 11.8563 17.0515 11.1319 17.0515Z" fill="#195CA3"/>
<path d="M37.3676 17.0515C36.6431 17.0515 36.0558 17.6387 36.0558 18.3631C36.0558 19.0876 36.6431 19.6748 37.3676 19.6748C38.0921 19.6748 38.6794 19.0876 38.6794 18.3631C38.6794 17.6387 38.0921 17.0515 37.3676 17.0515Z" fill="#195CA3"/>
<path d="M24.2497 19.6748C23.9017 19.6748 23.5681 19.5366 23.3221 19.2906C23.0761 19.0446 22.9379 18.711 22.9379 18.3631L24.2497 9.18152L25.5614 18.3631C25.5614 18.711 25.4232 19.0446 25.1772 19.2906C24.9312 19.5366 24.5976 19.6748 24.2497 19.6748Z" fill="#195CA3"/>
<path d="M25.5616 18.3632C25.5616 18.711 25.4234 19.0447 25.1773 19.2907C24.9313 19.5366 24.5977 19.6748 24.2498 19.6748L15.0673 18.3632L24.2498 17.0515C24.5977 17.0515 24.9313 17.1897 25.1773 17.4357C25.4234 17.6817 25.5616 18.0153 25.5616 18.3632Z" fill="#195CA3"/>
<path d="M45.2382 32.8701C45.2374 31.8859 44.8458 30.9424 44.1494 30.2468L40.647 26.7447L38.4563 24.5542C38.1161 24.1906 37.7063 23.8992 37.2512 23.6972C36.796 23.4952 36.3049 23.3869 35.8071 23.3786C35.3092 23.3703 34.8148 23.4622 34.3532 23.6489C33.8916 23.8356 33.4723 24.1132 33.1202 24.4653C32.7681 24.8173 32.4904 25.2366 32.3037 25.6982C32.117 26.1597 32.0251 26.6541 32.0334 27.1519C32.0417 27.6497 32.15 28.1408 32.352 28.5959C32.554 29.0509 32.8455 29.4607 33.2091 29.8009L35.3998 31.9913L38.9023 35.4934C39.4215 36.012 40.0827 36.365 40.8024 36.508C41.5222 36.651 42.2681 36.5775 42.9461 36.2968C43.6241 36.0161 44.2037 35.5408 44.6116 34.9309C45.0196 34.321 45.2376 33.6039 45.2382 32.8701V32.8701Z" fill="#90BF24"/>
<path d="M45.2383 32.8701C45.2375 31.8859 44.8459 30.9423 44.1495 30.2468L41.3029 27.4005L36.0558 32.6471L38.9024 35.4934C39.4215 36.012 40.0828 36.365 40.8025 36.508C41.5222 36.651 42.2682 36.5775 42.9462 36.2968C43.6242 36.0161 44.2038 35.5408 44.6117 34.9309C45.0197 34.321 45.2377 33.6039 45.2383 32.8701V32.8701Z" fill="#195CA3"/>
<path d="M37.4725 37.815C38.1185 37.148 38.5718 36.3186 38.7842 35.4147C38.994 34.5528 38.994 33.6533 38.7842 32.7914C38.5718 31.8875 38.1185 31.0581 37.4725 30.3911C36.9851 29.9032 36.4064 29.5163 35.7694 29.2522C35.1325 28.9882 34.4497 28.8523 33.7601 28.8523C33.0705 28.8523 32.3878 28.9882 31.7508 29.2522C31.1138 29.5163 30.5351 29.9032 30.0477 30.3911C29.4017 31.0581 28.9484 31.8875 28.736 32.7914C28.5138 33.6517 28.5138 34.5544 28.736 35.4147C28.9484 36.3186 29.4017 37.148 30.0477 37.815C30.5351 38.3029 31.1138 38.6898 31.7508 38.9539C32.3878 39.2179 33.0705 39.3538 33.7601 39.3538C34.4497 39.3538 35.1325 39.2179 35.7694 38.9539C36.4064 38.6898 36.9851 38.3029 37.4725 37.815V37.815Z" fill="#195CA3"/>
<path d="M36.4232 38.6152C37.1908 38.1538 37.8276 37.5035 38.2728 36.7264L31.0973 29.5516C30.3247 30.024 29.6875 30.6882 29.2477 31.4798L36.4232 38.6152Z" fill="#195CA3"/>
<path d="M18.3896 11.7693H1.83899V17.2773H18.3896V11.7693Z" fill="#90BF24"/>
<path d="M16.5506 19.1133V17.2773H3.67791V19.1133L1.02062 20.4444C0.714238 20.5964 0.456402 20.8308 0.2761 21.1211C0.0957987 21.4113 0.000181544 21.7461 0 22.0877V37.4733C0 37.9603 0.193746 38.4273 0.538617 38.7716C0.883488 39.1159 1.35123 39.3094 1.83895 39.3094H18.3895C18.8773 39.3094 19.345 39.1159 19.6899 38.7716C20.0348 38.4273 20.2285 37.9603 20.2285 37.4733V22.0877C20.2283 21.7461 20.1327 21.4113 19.9524 21.1211C19.7721 20.8308 19.5143 20.5964 19.2079 20.4444L16.5506 19.1133Z" fill="#195CA3"/>
<path d="M17.4701 23.7034H2.75842V36.5554H17.4701V23.7034Z" fill="#90BF24"/>
<path d="M13.7921 29.2113H6.43628V31.0473H13.7921V29.2113Z" fill="#C9DEA1"/>
<path d="M11.0337 33.8014V26.4574H9.19474V33.8014H11.0337Z" fill="#C9DEA1"/>
</svg>
