<svg width="46" height="46" viewBox="0 0 46 46" fill="none" xmlns="http://www.w3.org/2000/svg">
<path d="M43.6628 12.0449H1.50562V45.1685H43.6628V12.0449Z" fill="#C9DEA1"/>
<path d="M45.1685 3.01123H0V12.0449H45.1685V3.01123Z" fill="#195CA3"/>
<path d="M10.5393 1.50562C10.5393 0.674087 9.86522 0 9.03369 0C8.20216 0 7.52808 0.674087 7.52808 1.50562V6.02246C7.52808 6.85399 8.20216 7.52808 9.03369 7.52808C9.86522 7.52808 10.5393 6.85399 10.5393 6.02246V1.50562Z" fill="#90BF24"/>
<path d="M19.573 1.50562C19.573 0.674087 18.8989 0 18.0674 0C17.2359 0 16.5618 0.674087 16.5618 1.50562V6.02246C16.5618 6.85399 17.2359 7.52808 18.0674 7.52808C18.8989 7.52808 19.573 6.85399 19.573 6.02246V1.50562Z" fill="#90BF24"/>
<path d="M28.6067 1.50562C28.6067 0.674087 27.9326 0 27.1011 0C26.2695 0 25.5955 0.674087 25.5955 1.50562V6.02246C25.5955 6.85399 26.2695 7.52808 27.1011 7.52808C27.9326 7.52808 28.6067 6.85399 28.6067 6.02246V1.50562Z" fill="#90BF24"/>
<path d="M37.6404 1.50562C37.6404 0.674087 36.9663 0 36.1348 0C35.3032 0 34.6292 0.674087 34.6292 1.50562V6.02246C34.6292 6.85399 35.3032 7.52808 36.1348 7.52808C36.9663 7.52808 37.6404 6.85399 37.6404 6.02246V1.50562Z" fill="#90BF24"/>
<path d="M34.6292 45.1685V36.1348H43.6628L34.6292 45.1685Z" fill="#195CA3"/>
<path d="M43.6628 36.1348V45.1685H34.6292L43.6628 36.1348Z" fill="#90BF24"/>
<path d="M13.9513 15.2528H6.74158V18.9489H13.9513V15.2528Z" fill="#90BF24"/>
<path d="M39.1853 15.2528H17.5562V18.9489H39.1853V15.2528Z" fill="#90BF24"/>
<path d="M13.9513 22.645H6.74158V26.3412H13.9513V22.645Z" fill="#90BF24"/>
<path d="M39.1853 22.645H17.5562V26.3412H39.1853V22.645Z" fill="#90BF24"/>
<path d="M13.9513 30.0374H6.74158V33.7335H13.9513V30.0374Z" fill="#90BF24"/>
<path d="M39.1853 30.0374H17.5562V33.7335H39.1853V30.0374Z" fill="#90BF24"/>
</svg>
