<svg width="45" height="45" viewBox="0 0 45 45" fill="none" xmlns="http://www.w3.org/2000/svg">
<path d="M17.7414 29.4374H26.6121L29.569 42.6989H14.7845L17.7414 29.4374Z" fill="#195CA3"/>
<path d="M14.7847 41.3727H29.5692C30.3534 41.3727 31.1055 41.6521 31.66 42.1495C32.2145 42.6469 32.5261 43.3215 32.5261 44.025H11.8278C11.8278 43.3215 12.1393 42.6469 12.6938 42.1495C13.2483 41.6521 14.0004 41.3727 14.7847 41.3727Z" fill="#90BF24"/>
<path d="M2.9569 4.24048H41.3966C42.1808 4.24048 42.9329 4.51992 43.4874 5.01732C44.042 5.51472 44.3535 6.18934 44.3535 6.89278V29.4373H0V6.89278C0 6.18934 0.31153 5.51472 0.866056 5.01732C1.42058 4.51992 2.17268 4.24048 2.9569 4.24048V4.24048Z" fill="#C9DEA1"/>
<path d="M0.00012207 29.4374H44.3536V33.4158C44.3536 34.1193 44.0421 34.7939 43.4876 35.2913C42.933 35.7887 42.1809 36.0681 41.3967 36.0681H2.95702C2.1728 36.0681 1.4207 35.7887 0.866178 35.2913C0.311652 34.7939 0.00012207 34.1193 0.00012207 33.4158V29.4374Z" fill="#90BF24"/>
<path d="M24.6984 26.3985L28.3827 14.5372L35.2666 19.8733L24.6984 26.3985Z" fill="#195CA3"/>
<circle cx="32.8492" cy="12.1509" r="12.1509" fill="#195CA3"/>
<path d="M38.5214 10.7621H27.2255V13.7925H38.5214V10.7621Z" fill="#C9DEA1"/>
<path d="M34.2854 18.3382V6.21637H31.4614V18.3382H34.2854Z" fill="#C9DEA1"/>
</svg>
