<svg width="36" height="49" viewBox="0 0 36 49" fill="none" xmlns="http://www.w3.org/2000/svg">
<path d="M1.00658 0H27.0894L35.8537 8.76423V47.9791C35.8537 48.5429 35.403 49 34.8471 49H1.00652C0.450655 49 0 48.5429 0 47.9791V1.02091C0 0.457131 0.450723 0 1.00658 0Z" fill="#C9DEA1"/>
<path d="M5.42407 35.4553C4.84865 35.4553 4.38214 35.9012 4.38214 36.4513C4.38214 37.0013 4.84865 37.4472 5.42407 37.4472H30.4296C31.0051 37.4472 31.4716 37.0013 31.4716 36.4513C31.4716 35.9012 31.0051 35.4553 30.4296 35.4553H5.42407V35.4553Z" fill="#90BF24"/>
<path d="M5.42407 41.4309C4.84865 41.4309 4.38214 41.8768 4.38214 42.4268C4.38214 42.9769 4.84865 43.4228 5.42407 43.4228H30.4296C31.0051 43.4228 31.4716 42.9769 31.4716 42.4268C31.4716 41.8768 31.0051 41.4309 30.4296 41.4309H5.42407V41.4309Z" fill="#195CA3"/>
<path d="M12.9881 22.7073C12.4155 22.7073 11.9512 23.2424 11.9512 23.9024C11.9512 24.5624 12.4155 25.0975 12.9881 25.0975H22.8656C23.4382 25.0975 23.9025 24.5624 23.9025 23.9024C23.9025 23.2424 23.4382 22.7073 22.8656 22.7073H12.9881V22.7073Z" fill="#90BF24"/>
<path d="M5.42407 29.0813C4.84865 29.0813 4.38214 29.5272 4.38214 30.0772C4.38214 30.6273 4.84865 31.0732 5.42407 31.0732H30.4296C31.0051 31.0732 31.4716 30.6273 31.4716 30.0772C31.4716 29.5272 31.0051 29.0813 30.4296 29.0813H5.42407V29.0813Z" fill="#90BF24"/>
<path d="M12.748 8.91357H16.4827V5.17883H18.9726V8.91357H22.7073V11.4035H18.9726V15.1382H16.4827V11.4035H12.748V8.91357Z" fill="#195CA3"/>
<path d="M27.0894 0L35.8536 8.76423H27.0894V0Z" fill="#195CA3"/>
</svg>
