<svg width="44" height="49" viewBox="0 0 44 49" fill="none" xmlns="http://www.w3.org/2000/svg">
<path d="M43.2353 8.64697H5.76471V47.5587H43.2353V8.64697Z" fill="#C9DEA1"/>
<path d="M2.88235 11.5294C4.47423 11.5294 5.76471 10.2389 5.76471 8.647C5.76471 7.05512 4.47423 5.76465 2.88235 5.76465C1.29047 5.76465 0 7.05512 0 8.647C0 10.2389 1.29047 11.5294 2.88235 11.5294Z" fill="#90BF24"/>
<path d="M5.76471 8.64697H0V47.5587H5.76471V8.64697Z" fill="#90BF24"/>
<path d="M40.3529 46.1177H2.88232V49H40.3529V46.1177Z" fill="#195CA3"/>
<path d="M2.88235 49.0001C4.47423 49.0001 5.76471 47.7096 5.76471 46.1177C5.76471 44.5258 4.47423 43.2354 2.88235 43.2354C1.29047 43.2354 0 44.5258 0 46.1177C0 47.7096 1.29047 49.0001 2.88235 49.0001Z" fill="#195CA3"/>
<path d="M14.4117 -5.72205e-05V5.76465L34.5882 5.76465V-5.72205e-05L14.4117 -5.72205e-05Z" fill="#90BF24"/>
<path d="M40.3529 2.88235L34.5882 5.76471C33.8243 4.99996 33.3953 3.96326 33.3953 2.88235C33.3953 1.80144 33.8243 0.764742 34.5882 0L40.3529 2.88235Z" fill="#C9DEA1"/>
<path d="M8.64709 4.32347V1.44112C8.64709 1.0589 8.79893 0.692327 9.06921 0.422054C9.33948 0.151781 9.70605 -5.72205e-05 10.0883 -5.72205e-05H14.4118V5.76465H10.0883C9.70605 5.76465 9.33948 5.61281 9.06921 5.34254C8.79893 5.07226 8.64709 4.7057 8.64709 4.32347V4.32347Z" fill="#195CA3"/>
<path d="M21.6177 12.9707H10.0883V15.8531H21.6177V12.9707Z" fill="#195CA3"/>
<path d="M38.9118 18.7354H10.0883V21.6177H38.9118V18.7354Z" fill="#90BF24"/>
<path d="M38.9118 24.5H10.0883V27.3824H38.9118V24.5Z" fill="#90BF24"/>
<path d="M38.9118 33.147H25.9412V36.0293H38.9118V33.147Z" fill="#90BF24"/>
</svg>
