<svg width="47" height="43" viewBox="0 0 47 43" fill="none" xmlns="http://www.w3.org/2000/svg">
<path d="M30.8895 42.2411H0.000945786V36.2221C-0.0222042 35.0251 0.380268 33.8583 1.13791 32.9257C1.89555 31.9932 2.96008 31.3544 4.14516 31.1212C14.6215 29.1318 11.5327 29.4889 18.0193 29.4889L26.7453 31.2232C27.9304 31.4564 28.9949 32.0952 29.7526 33.0278C30.5102 33.9603 30.9127 35.1272 30.8895 36.3241V42.2411Z" fill="#90BF24"/>
<path d="M15.4452 29.489C13.3971 29.489 11.433 28.6828 9.98479 27.2479C8.5366 25.813 7.72302 23.8669 7.72302 21.8376V16.7368C7.72302 14.7075 8.5366 12.7614 9.98479 11.3265C11.433 9.89157 13.3971 9.08545 15.4452 9.08545C17.4932 9.08545 19.4574 9.89157 20.9056 11.3265C22.3537 12.7614 23.1673 14.7075 23.1673 16.7368V21.8376C23.1673 23.8669 22.3537 25.813 20.9056 27.2479C19.4574 28.6828 17.4932 29.489 15.4452 29.489Z" fill="#C9DEA1"/>
<path d="M23.1673 16.7368C18.9716 16.7368 15.8828 17.1703 12.8711 14.1863C11.5509 15.662 9.70665 16.5757 7.72302 16.7368C7.72302 14.7075 8.5366 12.7614 9.98479 11.3265C11.433 9.89157 13.3971 9.08545 15.4452 9.08545C17.4932 9.08545 19.4574 9.89157 20.9056 11.3265C22.3537 12.7614 23.1673 14.7075 23.1673 16.7368V16.7368Z" fill="#90BF24"/>
<path d="M12.8712 29.4889V26.9385H18.0193V29.4889C18.0193 30.1653 17.7481 30.814 17.2654 31.2923C16.7827 31.7706 16.1279 32.0394 15.4453 32.0394C14.7626 32.0394 14.1079 31.7706 13.6251 31.2923C13.1424 30.814 12.8712 30.1653 12.8712 29.4889Z" fill="#C9DEA1"/>
<path d="M26.3083 25.7217L29.898 14.1645L36.6055 19.3638L26.3083 25.7217Z" fill="#195CA3"/>
<circle cx="34.2501" cy="11.8394" r="11.8394" fill="#195CA3"/>
<rect x="32.4047" y="4.84558" width="3.87619" height="9.11079" rx="1.9381" fill="#C9DEA1"/>
<rect width="3.87619" height="3.50415" rx="1.75207" transform="matrix(1 0 0 -1 32.4048 18.6869)" fill="#C9DEA1"/>
</svg>
