<svg width="24" height="30" viewBox="0 0 24 30" fill="none" xmlns="http://www.w3.org/2000/svg">
<path d="M19 10H5V19H19V10Z" fill="#195CA3"/>
<path d="M0.75 25.89C1.09933 23.9566 2.11686 22.2074 3.62483 20.9481C5.13279 19.6887 7.03531 18.9992 9 19H15C16.9647 18.9992 18.8672 19.6887 20.3752 20.9481C21.8831 22.2074 22.9007 23.9566 23.25 25.89L24 30H0L0.75 25.89Z" fill="#90BF24"/>
<path d="M15 19L16 22H14L12 26L10 22H8L9 19H15Z" fill="#C9DEA1"/>
<path d="M14 17V19L13.61 19.77L12 23L10.39 19.77L10 19V17H14Z" fill="#D8EAB5"/>
<path d="M6 9C5.46957 9 4.96086 9.21071 4.58579 9.58579C4.21071 9.96086 4 10.4696 4 11V11C4 11.5304 4.21071 12.0391 4.58579 12.4142C4.96086 12.7893 5.46957 13 6 13H18C18.5304 13 19.0391 12.7893 19.4142 12.4142C19.7893 12.0391 20 11.5304 20 11C20 10.4696 19.7893 9.96086 19.4142 9.58579C19.0391 9.21071 18.5304 9 18 9H6Z" fill="#D8EAB5"/>
<path d="M6 7H18V12C18 13.5913 17.3679 15.1174 16.2426 16.2426C15.1174 17.3679 13.5913 18 12 18C10.4087 18 8.88258 17.3679 7.75736 16.2426C6.63214 15.1174 6 13.5913 6 12V7Z" fill="#D8EAB5"/>
<path d="M8 4H12C12 5.5913 11.3679 7.11742 10.2426 8.24264C9.11742 9.36786 7.5913 10 6 10H5V7C5 6.20435 5.31607 5.44129 5.87868 4.87868C6.44129 4.31607 7.20435 4 8 4V4Z" fill="#195CA3"/>
<path d="M19 10H16C14.4087 10 12.8826 9.36786 11.7574 8.24264C10.6321 7.11742 10 5.5913 10 4V4L16 4C16.7956 4 17.5587 4.31607 18.1213 4.87868C18.6839 5.44129 19 6.20435 19 7V10Z" fill="#195CA3"/>
<path d="M12 0C7.58 0 4 1.34 4 3L6 8H18L20 3C20 1.34 16.42 0 12 0Z" fill="#90BF24"/>
<path d="M13 1H11V7H13V1Z" fill="#195CA3"/>
<path d="M15 5V3L9 3V5H15Z" fill="#195CA3"/>
<path d="M9 25H4V27H9V25Z" fill="#D8EAB5"/>
</svg>
