<svg width="144" height="144" viewBox="0 0 144 144" fill="none" xmlns="http://www.w3.org/2000/svg">
<path d="M134.4 62.4H9.6001V144H134.4V62.4Z" fill="#D1E6E9"/>
<path d="M19.2 28.8H124.8L144 62.4H0L19.2 28.8Z" fill="#68C7D3"/>
<path d="M72 48C85.2548 48 96 37.2548 96 24C96 10.7452 85.2548 0 72 0C58.7452 0 48 10.7452 48 24C48 37.2548 58.7452 48 72 48Z" fill="#30ACC2"/>
<path d="M86.4001 19.2H57.6001V28.8H86.4001V19.2Z" fill="#D1E6E9"/>
<path d="M76.7998 38.4V9.59998H67.1998V38.4H76.7998Z" fill="#D1E6E9"/>
<path d="M0 62.4H24V64.8C24 66.3759 23.6896 67.9363 23.0866 69.3922C22.4835 70.8481 21.5996 72.171 20.4853 73.2853C19.371 74.3996 18.0481 75.2835 16.5922 75.8866C15.1363 76.4896 13.5759 76.8 12 76.8C8.8174 76.8 5.76516 75.5357 3.51472 73.2853C1.26428 71.0349 0 67.9826 0 64.8V62.4Z" fill="#68C7D3"/>
<path d="M24 62.4H48V64.8C48 67.9826 46.7357 71.0349 44.4853 73.2853C42.2348 75.5357 39.1826 76.8 36 76.8C32.8174 76.8 29.7652 75.5357 27.5147 73.2853C25.2643 71.0349 24 67.9826 24 64.8V62.4Z" fill="#68C7D3"/>
<path d="M48 62.4H72V64.8C72 67.9826 70.7357 71.0349 68.4853 73.2853C66.2348 75.5357 63.1826 76.8 60 76.8C56.8174 76.8 53.7652 75.5357 51.5147 73.2853C49.2643 71.0349 48 67.9826 48 64.8V62.4Z" fill="#68C7D3"/>
<path d="M72 62.4H96V64.8C96 67.9826 94.7357 71.0349 92.4853 73.2853C90.2348 75.5357 87.1826 76.8 84 76.8C80.8174 76.8 77.7652 75.5357 75.5147 73.2853C73.2643 71.0349 72 67.9826 72 64.8V62.4Z" fill="#68C7D3"/>
<path d="M96 62.4H120V64.8C120 67.9826 118.736 71.0349 116.485 73.2853C114.235 75.5357 111.183 76.8 108 76.8C104.817 76.8 101.765 75.5357 99.5147 73.2853C97.2643 71.0349 96 67.9826 96 64.8V62.4Z" fill="#68C7D3"/>
<path d="M120 62.4H144V64.8C144 67.9826 142.736 71.0349 140.485 73.2853C138.235 75.5357 135.183 76.8 132 76.8C128.817 76.8 125.765 75.5357 123.515 73.2853C121.264 71.0349 120 67.9826 120 64.8V62.4Z" fill="#68C7D3"/>
<path d="M144 134.4H0V144H144V134.4Z" fill="#68C7D3"/>
<path d="M62.4 81.6H24V144H62.4V81.6Z" fill="#A1D8DF"/>
<path d="M120 81.6H76.7998V124.8H120V81.6Z" fill="#A1D8DF"/>
</svg>
