<svg width="51" height="40" viewBox="0 0 51 40" fill="none" xmlns="http://www.w3.org/2000/svg">
<path d="M50.8895 39.1556H20.0009V33.1366C19.9778 31.9397 20.3803 30.7728 21.1379 29.8403C21.8955 28.9078 22.9601 28.269 24.1452 28.0357C34.6215 26.0464 31.5327 26.4035 38.0193 26.4035L46.7453 28.1378C47.9304 28.371 48.9949 29.0098 49.7526 29.9423C50.5102 30.8748 50.9127 32.0417 50.8895 33.2386V39.1556Z" fill="#90BF24"/>
<path d="M35.4452 26.4035C33.3971 26.4035 31.433 25.5974 29.9848 24.1625C28.5366 22.7276 27.723 20.7814 27.723 18.7522V13.6513C27.723 11.6221 28.5366 9.67592 29.9848 8.24102C31.433 6.80612 33.3971 6 35.4452 6C37.4932 6 39.4574 6.80612 40.9056 8.24102C42.3537 9.67592 43.1673 11.6221 43.1673 13.6513V18.7522C43.1673 20.7814 42.3537 22.7276 40.9056 24.1625C39.4574 25.5974 37.4932 26.4035 35.4452 26.4035Z" fill="#C9DEA1"/>
<path d="M43.1673 13.6513C38.9716 13.6513 35.8828 14.0849 32.8711 11.1009C31.5509 12.5766 29.7066 13.4903 27.723 13.6513C27.723 11.6221 28.5366 9.67592 29.9848 8.24102C31.433 6.80612 33.3971 6 35.4452 6C37.4932 6 39.4574 6.80612 40.9056 8.24102C42.3537 9.67592 43.1673 11.6221 43.1673 13.6513V13.6513Z" fill="#90BF24"/>
<path d="M32.8713 26.4035V23.853H38.0194V26.4035C38.0194 27.0799 37.7482 27.7286 37.2655 28.2069C36.7828 28.6852 36.1281 28.9539 35.4454 28.9539C34.7627 28.9539 34.108 28.6852 33.6253 28.2069C33.1425 27.7286 32.8713 27.0799 32.8713 26.4035Z" fill="#C9DEA1"/>
<path d="M25.7449 6.91914C25.6344 6.73865 25.5694 6.63248 25.5694 6.63248C23.6727 3.53508 20.6204 1.31981 17.0838 0.47399C13.5471 -0.371829 9.81602 0.221092 6.71116 2.12232C3.60631 4.02354 1.38207 7.07734 0.527742 10.6119C-0.326581 14.1465 0.258997 17.8722 2.15566 20.9696C2.15566 20.9696 2.22067 21.0758 2.33119 21.2563C5.40627 26.2782 12.2638 27.9182 13.9782 28.3282C20.0814 29.7879 23.167 32.3655 24.4248 33.7266C24.6491 33.9667 24.9494 34.1223 25.2753 34.1673C25.6013 34.2122 25.933 34.1438 26.2149 33.9734C26.4947 33.7998 26.7065 33.5354 26.8146 33.2247C26.9227 32.9139 26.9207 32.5757 26.8087 32.2668C26.1682 30.5277 25.275 26.6076 26.7493 20.508C27.1635 18.7946 28.82 11.941 25.7449 6.91914Z" fill="#C9DEA1"/>
<path d="M23.8219 13.8721C23.8612 8.35854 19.4341 3.8571 13.9338 3.81788C8.43342 3.77867 3.94264 8.21653 3.90333 13.7301C3.86402 19.2437 8.29107 23.7452 13.7914 23.7844C19.2918 23.8236 23.7826 19.3857 23.8219 13.8721Z" fill="#195CA3"/>
<path d="M12.5232 8.53699L12.4496 18.8663L15.2207 18.8861L15.2944 8.55675L12.5232 8.53699Z" fill="#90BF24"/>
<path d="M19.4234 12.4598L8.33887 12.3807L8.32046 14.9631L19.405 15.0421L19.4234 12.4598Z" fill="#90BF24"/>
</svg>
