<svg width="191" height="173" viewBox="0 0 191 173" fill="none" xmlns="http://www.w3.org/2000/svg">
<g clip-path="url(#clip0_403_6307)">
<path d="M2.84464 54.664C17.2382 -1.27501 175.971 47.282 175.971 47.282L168.863 106.284C168.863 106.284 88.8512 169.115 56.2547 146.23C29.5396 127.474 -6.344 90.3747 2.84464 54.664Z" fill="white"/>
<path d="M81.7892 164.863C75.2059 160.938 66.8947 155.675 63.3196 153.168C59.7447 150.66 54.5697 146.795 51.8196 144.578C49.0697 142.361 43.7539 137.858 40.0069 134.572C36.2598 131.286 30.1442 124.975 26.4166 120.548C22.689 116.122 17.8306 109.8 15.6201 106.5C13.4097 103.2 10.6287 98.5874 9.44009 96.2499L7.27902 91.9999H22.1082C32.4519 91.9999 37.4212 91.6218 38.5368 90.7499C39.4165 90.0624 41.6946 86.3658 43.5992 82.5352L47.0623 75.5705L56.941 94.9885C62.3742 105.668 67.5375 114.831 68.4149 115.35C69.2923 115.87 71.2072 115.994 72.6703 115.627L75.3306 114.959L85.3299 94.9795C90.8295 83.9907 95.4395 74.9998 95.5744 74.9997C95.7094 74.9995 95.6988 96.8245 95.5518 123.5C95.404 150.175 94.9402 172 94.5212 172C94.1023 172 88.3732 168.788 81.79 164.863L81.7892 164.863ZM60.7946 76.1916L50.8196 56.4999L48.0092 56.1776C46.4634 56.0004 44.51 56.4269 43.6683 57.1255C42.8266 57.8241 39.7 63.2566 36.7204 69.1977L31.303 79.9999H16.9245H2.54613L1.244 73.2499C0.527821 69.5374 -0.031364 62.6749 0.00136675 57.9999C0.0353825 53.3249 0.828975 46.5749 1.76777 42.9999C2.70653 39.4249 4.88427 33.5749 6.60709 29.9999C8.75719 25.5384 12.1042 21.1408 17.2796 15.9777C21.8036 11.4644 27.0722 7.34068 30.4511 5.66845C33.5484 4.13558 38.4984 2.23842 41.4511 1.45253C44.4038 0.666634 49.7626 0.0182909 53.3596 0.0117636C56.9565 0.00533843 62.5478 0.68968 65.7847 1.53278C69.0216 2.37588 73.9536 4.28838 76.7448 5.78279C79.536 7.27719 84.8572 11.442 88.5697 15.038L95.3196 21.5761V38.5509V55.5256L93.0697 56.5127C91.513 57.1957 87.8923 63.2556 81.3197 76.1788C76.0947 86.4521 71.5834 95.0884 71.2946 95.3704C71.0058 95.6524 66.2808 87.0221 60.7946 76.1916V76.1916Z" fill="#C6DBA0"/>
<path d="M95.3677 124.357L95.4157 76.5L98.481 82.5C100.167 85.8 102.24 89.2875 103.088 90.25L104.629 92H128.475H152.32L154.32 90C155.42 88.9 156.319 87.2001 156.319 86.2225C156.319 85.2449 155.619 83.4449 154.763 82.2225L153.206 80H132.32H111.434L105.7 68.4747C101.344 59.72 99.4075 56.8092 97.6427 56.3663L95.3196 55.7832V38.7613V21.7395L102.07 15.1197C106.313 10.958 111.233 7.331 115.32 5.35173C118.895 3.62017 124.204 1.70766 127.119 1.10172C130.033 0.495781 134.776 0 137.659 0C140.541 0 145.472 0.670093 148.616 1.48909C151.761 2.30809 157.143 4.39315 160.577 6.12256C164.453 8.07492 169.355 11.8434 173.507 16.0632C178.403 21.0392 181.26 25.088 184.174 31.1797C186.363 35.7559 188.701 42.2 189.37 45.5C190.039 48.8 190.568 55.1 190.546 59.5C190.524 63.9 189.785 70.5841 188.903 74.3535C188.022 78.1228 186.109 84.1978 184.654 87.8535C183.198 91.5091 179.987 97.875 177.517 102C175.047 106.125 170.688 112.425 167.83 116C164.972 119.575 159.525 125.578 155.726 129.339C151.928 133.101 145.895 138.562 142.32 141.475C138.745 144.388 132.287 149.296 127.969 152.382C123.651 155.469 115.28 160.909 109.367 164.471C103.454 168.034 97.8744 171.234 96.9679 171.582L95.3196 172.214L95.3676 124.357H95.3677Z" fill="#7FB11E"/>
</g>
<defs>
<clipPath id="clip0_403_6307">
<rect width="190.547" height="172.214" fill="white"/>
</clipPath>
</defs>
</svg>
