<?xml version="1.0" encoding="UTF-8"?>
<svg width="94.915mm" height="22.123mm" version="1.1" viewBox="0 0 94.915 22.123" xmlns="http://www.w3.org/2000/svg" xmlns:xlink="http://www.w3.org/1999/xlink">
 <defs>
  <radialGradient id="radialGradient850" cx="0" cy="0" r="1" gradientTransform="matrix(.54549 -154.92 -154.92 -.54549 86.686 158.56)" gradientUnits="userSpaceOnUse">
   <stop style="stop-color:#fff" offset="0"/>
   <stop style="stop-color:#9bc" offset=".86502"/>
   <stop style="stop-color:#fff" offset="1"/>
  </radialGradient>
  <clipPath id="clipPath860">
   <path d="M 0,173.371 H 743.809 V 0 H 0 Z"/>
  </clipPath>
  <clipPath id="clipPath894">
   <path d="M 0,173.371 H 743.809 V 0 H 0 Z"/>
  </clipPath>
  <radialGradient id="radialGradient918" cx="0" cy="0" r="1" gradientTransform="matrix(.54549 -154.92 -154.92 -.54549 86.686 158.56)" gradientUnits="userSpaceOnUse">
   <stop style="stop-color:#7aca2b" offset="0"/>
   <stop style="stop-color:#519533" offset=".86502"/>
   <stop style="stop-color:#7aca2b" offset="1"/>
  </radialGradient>
  <linearGradient id="linearGradient938" x2="1" gradientTransform="matrix(-.0012625 -.0010727 -.0010727 .0012625 83.248 61.612)" gradientUnits="userSpaceOnUse">
   <stop style="stop-color:#67cde4" offset="0"/>
   <stop style="stop-color:#4878c5" offset="1"/>
  </linearGradient>
  <linearGradient id="linearGradient1096" x2="1" gradientTransform="matrix(-.0012625 -.0010727 -.0010727 .0012625 83.248 61.612)" gradientUnits="userSpaceOnUse" xlink:href="#linearGradient938"/>
 </defs>
 <g transform="translate(-47.969 -106.05)">
  <g transform="matrix(.35278 0 0 -.35278 -3.1095 158.67)">
   <g>
    <g></g>
   </g>
  </g>
  <g transform="matrix(.36172 0 0 .36172 49.094 70.781)">
   <g transform="matrix(.35278 0 0 -.35278 -3.1095 158.67)">
    <g>
     <g>
      <g>
       <path d="m4.529 86.685c0-39.38 27.708-72.289 64.693-80.296v26.974l-16.109 11.339c-0.877-0.515-1.754-0.742-2.576-0.742-2.47 0-4.447 2.047-4.447 4.498 0 2.49 2.025 4.515 4.515 4.515 2.864 0 5.452-2.759 4.12-6.375l14.497-10.203v6.891s-13.309 10.18-17.981 13.525c-1.064 0.775-2.182 2.33-2.182 3.932v8.777c-13.111 12.404-22.748 21.669-22.748 21.669-0.416-0.163-1.009-0.413-1.898-0.413-2.489 0-4.515 2.02-4.515 4.504 0 2.489 2.026 4.515 4.515 4.515 2.49 0 4.516-2.026 4.516-4.515 0-1.248-0.496-2.051-0.728-2.467l6.487-6.226v10.685c0 0.662-0.272 1.304-0.746 1.762l-5.462 5.286c-0.416-0.162-0.997-0.402-1.866-0.402-2.49 0-4.514 2.025-4.514 4.515 0 2.484 2.024 4.504 4.514 4.504 2.489 0 4.515-2.02 4.515-4.504 0-1.267-0.512-2.085-0.749-2.502l5.287-5.115c0.954-0.925 1.501-2.216 1.501-3.544v-10.493c0-1.65 0.687-3.246 1.886-4.38l10.005-9.467v8.983l-4.042 4.039c-1.639 1.637-2.578 3.902-2.577 6.219l8e-3 14.914c2e-3 1.403-0.237 1.29-7.829 8.882-0.667-0.257-1.31-0.373-1.915-0.373-2.581 0-4.461 2.114-4.461 4.487 0 2.491 2.025 4.516 4.514 4.516 3.195 0 5.826-3.409 3.761-7.024l6.941-6.94c0.934-0.933 1.47-2.227 1.469-3.548l-8e-3 -14.916c-1e-3 -3.111 1.888-4.501 4.078-6.689 0.238 1.067 0.36 2.11 1.838 3.202v21.873l-5.371 5.663c-1.608 1.695-2.494 3.917-2.494 6.252v8.964c-2.097 0.892-3.004 2.546-3.004 4.262 0 2.491 2.025 4.516 4.515 4.516 2.489 0 4.515-2.025 4.515-4.516 0-1.917-1.168-3.719-3.546-4.417v-8.809c0-3.237 1.778-4.51 5.362-8.29 0.208 5.202 1.767 6.035 6.225 10.5 1.015 1.014 0.745 0.639 0.745 16.488-2.176 0.858-3.13 2.527-3.13 4.302 0 2.49 2.025 4.516 4.515 4.516s4.515-2.026 4.515-4.516c0-1.906-1.106-3.643-3.421-4.39v-14.604c0-4.89-6.947-6.013-6.947-11.651v-7.47l5.427 5.452c-2.066 3.585 0.524 7.033 3.754 7.033 2.489 0 4.514-2.025 4.514-4.515 0-2.371-1.878-4.487-4.463-4.487-0.6 0-1.239 0.115-1.901 0.367l-7.331-7.365v-14.605c2.19-0.554 3.181-2.236 3.181-3.93v-14.881c0-1.247 0.614-2.408 1.647-3.108 12.265-8.321 12.466-8.626 13.07-8.626 0.047 0 0.097 2e-3 0.156 2e-3 1.854 0 2.175 2.453 1.349 3.068-2.757 2.05-8.402 5.554-10.641 8.019-1.689 1.857-0.153 5.266 2.571 5.266 0.74 0 1.567-0.252 2.44-0.853l3.173-2.109 6e-3 11.2c1e-3 0.668-0.27 1.322-0.742 1.794l-7.087 7.086c-0.416-0.16-0.996-0.399-1.861-0.399-2.49 0-4.516 2.027-4.516 4.515 0 2.49 2.026 4.515 4.516 4.515 3.198 0 5.822-3.414 3.76-7.023l6.941-6.941c0.934-0.933 1.47-2.227 1.469-3.547l-4e-3 -12.847 5.64-3.748v22.245c-0.633 0.73 0.296-0.223-6.373 6.448-1.638 1.636-2.576 3.902-2.576 6.217l0.01 32.609-4e-3 1e-3c-1.99 0.746-2.999 2.187-3.164 3.881-0.239 2.477 1.581 4.689 4.06 4.93 0.147 0.014 0.293 0.02 0.438 0.02 2.295 0 4.264-1.748 4.491-4.079 0.149-1.531-0.424-3.052-1.824-4.037-0.779-0.547-1.517-0.769-1.517-0.769l-9e-3 -32.556c-1e-3 -1.661 0.672-3.288 1.848-4.465l4.62-4.619v8.949c0 1.34 0.564 2.629 1.551 3.536 6.922 6.375 6.326 5.715 7.112 6.887l-6.248 6.256c-0.416-0.158-0.993-0.395-1.853-0.395-2.489 0-4.515 2.025-4.515 4.515s2.026 4.515 4.515 4.515c2.49 0 4.515-2.025 4.515-4.515 0-1.276-0.521-2.1-0.759-2.515l5.16-5.166-0.013 8.472c-1e-3 1.662-0.677 3.291-1.854 4.467l-5.078 5.079c-0.933 0.933-1.469 2.225-1.469 3.546v14.006c-2.262 0.804-3.285 2.544-3.285 4.348 0 2.491 2.025 4.515 4.514 4.515s4.515-2.024 4.515-4.515c0-1.824-1.045-3.541-3.265-4.342v-14.012c0-0.667 0.272-1.321 0.744-1.794l5.077-5.078c1.636-1.635 2.577-3.901 2.582-6.217l0.01-8.167c4e-3 -2.336-0.98-4.582-2.697-6.163l-6.029-5.55c-0.477-0.44-0.751-1.064-0.751-1.713v-36.424c0.768-0.509 2.359-1.234 2.381-3.39-2e-3 -3.067-5e-3 -15.288-5e-3 -57.051 1.143-0.047 2.293-0.071 3.448-0.071 0.454 0 0.909 3e-3 1.362 0.011v56.803c0 1.171 0.265 2.121 1.181 2.898l4.997 3.328v5.613l-5.501 4.987c-1.733 1.567-2.727 3.81-2.726 6.15l8e-3 7.395-0.049 0.022-4e-3 0.13c-5.584 5.262-0.978 9.495 0.745 10.778l3e-3 1e-3c0.131 0.096 0.336 0.212 0.586 0.212 0.172 0 0.367-0.055 0.571-0.212l0.041-0.024c1.758-1.321 6.332-5.585 0.591-10.87l0.018-0.085-0.023-9e-3 -6e-3 -7.341c-2e-3 -1.638 0.693-3.21 1.908-4.311l3.838-3.479v22.894c0 2.327 0.967 4.581 2.65 6.187l1.986 1.893c0.476 0.453 0.748 1.089 0.748 1.746v14.716l-5.819 5.81c-1.638 1.637-2.578 3.903-2.578 6.219v11.678c-5.639 5.278-1.015 9.527 0.711 10.813l4e-3 1e-3c0.13 0.095 0.336 0.212 0.585 0.212 0.173 0 0.366-0.056 0.571-0.212l0.042-0.025c1.76-1.322 6.342-5.596 0.567-10.89v-11.577c0-1.662 0.674-3.29 1.85-4.464l4.067-4.062v6.368c-5.662 5.284-1.03 9.538 0.698 10.825l2e-3 1e-3c0.132 0.096 0.337 0.212 0.586 0.212 0.173 0 0.368-0.056 0.572-0.212l0.041-0.025c1.76-1.32 6.337-5.589 0.58-10.879v-24.509c0-1.332-0.553-2.623-1.516-3.54l-1.985-1.894c-1.195-1.138-1.881-2.74-1.881-4.392v-7.162l5.448 4.915c-0.34 6.424 3.797 7.461 6.493 7.461 0.609 0 1.146-0.053 1.54-0.109l2e-3 -1e-3c0.269-0.04 0.731-0.189 0.816-0.809l0.013-0.045c0.311-2.11 0.546-8.081-6.68-8.081-0.078 0-0.157 1e-3 -0.236 3e-3l-7.396-6.674v-19.701l7.496 4.98c1.156 0.781 2.193 1.101 3.073 1.101 2.989 0 4.159-3.686 1.935-5.517-2.574-2.115-7.957-5.745-10.643-8.019-0.331-0.283-0.427-0.767-0.427-1.214 0-1.102 0.875-1.856 1.783-1.856 0.306 0 0.617 0.085 0.899 0.272l12.32 8.354c1.032 0.7 1.647 1.861 1.647 3.108v3.755l-7.293 7.333c-0.145-5e-3 -0.285-6e-3 -0.424-6e-3 -7.226 0-6.981 5.978-6.67 8.09l0.012 0.045c0.085 0.619 0.547 0.767 0.816 0.808l3e-3 2e-3c0.395 0.055 0.933 0.109 1.546 0.109 2.678 0 6.771-1.019 6.5-7.308l5.51-5.512v7.565c0 1.53 0.765 2.934 2.467 3.736v15.092l-6.708 6.731c-0.049 0-0.097-1e-3 -0.144-1e-3 -7.227 0-6.996 5.967-6.684 8.078l0.012 0.046c0.085 0.619 0.546 0.768 0.816 0.807l2e-3 2e-3c0.393 0.056 0.925 0.108 1.533 0.108 2.708 0 6.877-1.046 6.49-7.56l4.683-4.699v7.483c0 1.662-0.674 3.289-1.85 4.463l-3.635 3.63c-0.934 0.933-1.47 2.226-1.47 3.547v13.923c-5.667 5.286-1.034 9.541 0.695 10.829h3e-3c0.13 0.096 0.335 0.213 0.586 0.213 0.172 0 0.366-0.055 0.57-0.213l0.042-0.024c1.759-1.32 6.336-5.588 0.582-10.876v-13.852c0-3.023 6.69-4.85 6.941-11.309l0.037-0.986c3.586 3.78 5.365 5.052 5.365 8.289v8.248c-5.734 5.304-1.083 9.578 0.649 10.869l4e-3 1e-3c0.13 0.096 0.336 0.213 0.585 0.213 0.173 0 0.367-0.056 0.571-0.213l0.041-0.025c1.755-1.317 6.315-5.566 0.629-10.835v-8.258c0-2.337-0.885-4.557-2.493-6.253l-5.37-5.662v-21.797c1.44-0.667 1.819-1.323 2.401-2.703 1.724 1.721 3.514 3.116 3.514 6.124l-9e-3 14.905c0 1.322 0.534 2.615 1.467 3.55l6.064 6.07c-0.327 6.4 3.802 7.432 6.494 7.432 0.61 0 1.147-0.053 1.541-0.108l3e-3 -1e-3c0.269-0.04 0.729-0.188 0.815-0.808l0.012-0.046c0.312-2.111 0.551-8.084-6.677-8.084-0.096 0-0.194 2e-3 -0.293 3e-3l-6.204-6.212c-1.013-1.012-0.742-0.604-0.734-16.699 3e-3 -4.368-2.649-6.291-5.906-9.545v-12.305l10.698 10.364v12.694c0 2.341 0.893 4.559 2.515 6.244l4.669 4.855c-0.353 6.452 3.794 7.489 6.493 7.489 0.608 0 1.143-0.052 1.536-0.108l3e-3 -1e-3c0.269-0.04 0.731-0.188 0.816-0.808l0.012-0.046c0.311-2.11 0.547-8.081-6.68-8.081-0.077 0-0.156 1e-3 -0.234 2e-3l-4.828-5.019c-1.158-1.204-1.822-2.854-1.822-4.527v-10.44l6.823 6.853c-0.345 6.435 3.795 7.472 6.492 7.472 0.609 0 1.145-0.053 1.539-0.109l3e-3 -1e-3c0.269-0.039 0.73-0.188 0.816-0.808l0.011-0.046c0.313-2.11 0.551-8.083-6.677-8.082-0.088 0-0.178 1e-3 -0.268 3e-3l-17.042-16.679c4.843 0.105 6.951-0.154 9.164 2.059l3.224 3.256c-0.246 6.31 3.83 7.345 6.531 7.345 0.64 0 1.204-0.059 1.613-0.118l3e-3 -1e-3c0.271-0.043 0.735-0.194 0.818-0.819l0.012-0.046c0.302-2.122 0.519-8.117-6.696-8.117-0.169 0-0.343 3e-3 -0.521 0.01l-3.23-3.263c-1.653-1.652-3.85-2.596-6.185-2.659l-7.335-0.194-2.273-2.223v-6.333c0-1.662-1.127-3.164-2.18-3.93-6.527-4.673-13.707-10.22-17.983-13.527v-6.632l15.828 11.155c-0.22 6.197 3.842 7.204 6.503 7.204 0.613 0 1.151-0.054 1.546-0.109l3e-3 -1e-3c0.269-0.04 0.731-0.188 0.816-0.809l0.012-0.045c0.312-2.111 0.553-8.085-6.673-8.085-0.165 0-0.334 3e-3 -0.507 9e-3l-17.528-12.353v-4.5l-0.028-0.022v-11.68l0.028 0.021v-11.473c38.024 7.2 66.778 40.603 66.778 80.719 0 45.374-36.783 82.157-82.156 82.157-45.374 0-82.157-36.783-82.157-82.157m74.112 67.816c0-1.121 0.913-2.034 2.035-2.034s2.036 0.913 2.036 2.034c0 1.123-0.914 2.036-2.036 2.036s-2.035-0.913-2.035-2.036m-21.508-9.029c0-1.122 0.913-2.035 2.035-2.035s2.036 0.913 2.036 2.035c0 1.123-0.914 2.035-2.036 2.035s-2.035-0.912-2.035-2.035m13.441-4.92c-1.116-0.108-1.937-1.105-1.83-2.222 0.102-1.05 0.99-1.839 2.026-1.839 0.065 0 0.131 3e-3 0.198 9e-3 1.117 0.109 1.937 1.105 1.829 2.222-0.102 1.052-0.99 1.839-2.025 1.839-0.065 0-0.131-3e-3 -0.198-9e-3m-28.128-4.854c0-1.122 0.913-2.035 2.036-2.035 1.122 0 2.034 0.913 2.034 2.035 0 1.124-0.912 2.036-2.034 2.036-1.123 0-2.036-0.912-2.036-2.036m34.464-13.434c0-1.123 0.912-2.035 2.035-2.035 1.122 0 2.036 0.912 2.036 2.035 0 1.122-0.914 2.035-2.036 2.035-1.123 0-2.035-0.913-2.035-2.035m-46.188-2.181c0-1.121 0.914-2.034 2.035-2.034 1.123 0 2.037 0.913 2.037 2.034 0 1.124-0.914 2.036-2.037 2.036-1.121 0-2.035-0.912-2.035-2.036m29.738-4.756c0-1.122 0.913-2.034 2.036-2.034 1.122 0 2.035 0.912 2.035 2.034 0 1.123-0.913 2.037-2.035 2.037-1.123 0-2.036-0.914-2.036-2.037m-35.882-6.894c0-1.122 0.914-2.036 2.036-2.036s2.035 0.914 2.035 2.036c0 1.116-0.913 2.026-2.035 2.026s-2.036-0.91-2.036-2.026m33.962-12.152c0-1.122 0.914-2.036 2.037-2.036 1.122 0 2.035 0.914 2.035 2.036 0 1.123-0.913 2.035-2.035 2.035-1.123 0-2.037-0.912-2.037-2.035m-36.162-1.001c0-1.117 0.912-2.026 2.035-2.026s2.035 0.909 2.035 2.026c0 1.123-0.912 2.035-2.035 2.035s-2.035-0.912-2.035-2.035m26.192-46.822c0-1.123 0.913-2.037 2.035-2.037 1.123 0 2.036 0.914 2.036 2.037 0 1.121-0.913 2.035-2.036 2.035-1.122 0-2.035-0.914-2.035-2.035" style="fill:url(#radialGradient850)"/>
      </g>
     </g>
    </g>
   </g>
   <g transform="matrix(.35278 0 0 -.35278 -3.1095 158.67)">
    <g clip-path="url(#clipPath860)">
     <g transform="translate(83.238 4.1051)">
      <path d="M 0,0 H -14.017 V 2.284 C -9.473,1.3 -4.79,0.693 0,0.495 V 0" style="fill:#4778c5"/>
     </g>
    </g>
   </g>
   <g transform="matrix(.35278 0 0 -.35278 -3.1095 158.67)">
    <g clip-path="url(#clipPath894)">
     <g transform="translate(102.06 4.1051)">
      <path d="m0 0h-14.017v0.435c4.783 0.077 9.466 0.564 14.017 1.426v-1.861" style="fill:#7acb2b"/>
     </g>
    </g>
   </g>
   <g transform="matrix(.35278 0 0 -.35278 -3.1095 158.67)">
    <g>
     <g>
      <g>
       <path d="m91.928 158.48-4e-3 -1e-3c-1.726-1.286-6.35-5.535-0.711-10.813v-11.678c0-2.316 0.94-4.582 2.578-6.219l5.819-5.81v-14.716c0-0.657-0.272-1.293-0.748-1.746l-1.986-1.893c-1.683-1.606-2.65-3.86-2.65-6.187v-22.894l-3.838 3.479c-1.215 1.101-1.91 2.673-1.908 4.311l6e-3 7.341 0.023 9e-3 -0.018 0.085c5.741 5.285 1.167 9.549-0.591 10.87l-0.041 0.024c-0.204 0.157-0.399 0.212-0.571 0.212-0.25 0-0.455-0.116-0.586-0.212l-3e-3 -1e-3c-1.723-1.283-6.329-5.516-0.745-10.778l4e-3 -0.13 0.049-0.022-8e-3 -7.395c-1e-3 -2.34 0.993-4.583 2.726-6.15l5.501-4.987v-5.613l-4.997-3.328c-0.916-0.777-1.181-1.727-1.181-2.898v-56.803c4.783 0.078 9.465 0.564 14.016 1.426v11.473l-0.028-0.021v11.68l0.028 0.022v4.5l17.528 12.353c0.173-6e-3 0.342-9e-3 0.507-9e-3 7.226 0 6.985 5.974 6.673 8.085l-0.012 0.045c-0.085 0.621-0.547 0.769-0.816 0.809l-3e-3 1e-3c-0.395 0.055-0.933 0.109-1.546 0.109-2.661 0-6.723-1.007-6.503-7.204l-15.828-11.155v6.632c4.276 3.307 11.456 8.854 17.983 13.527 1.053 0.766 2.18 2.268 2.18 3.93v6.333l2.273 2.223 7.335 0.194c2.335 0.063 4.532 1.007 6.185 2.659l3.23 3.263c0.178-7e-3 0.352-0.01 0.521-0.01 7.215 0 6.998 5.995 6.696 8.117l-0.012 0.046c-0.083 0.625-0.547 0.776-0.818 0.819l-3e-3 1e-3c-0.409 0.059-0.973 0.118-1.613 0.118-2.701 0-6.777-1.035-6.531-7.345l-3.224-3.256c-2.213-2.213-4.321-1.954-9.164-2.059l17.042 16.679c0.09-2e-3 0.18-3e-3 0.268-3e-3 7.228-1e-3 6.99 5.972 6.677 8.082l-0.011 0.046c-0.086 0.62-0.547 0.769-0.816 0.808l-3e-3 1e-3c-0.394 0.056-0.93 0.109-1.539 0.109-2.697 0-6.837-1.037-6.492-7.472l-6.823-6.853v10.44c0 1.673 0.664 3.323 1.822 4.527l4.828 5.019c0.078-1e-3 0.157-2e-3 0.234-2e-3 7.227 0 6.991 5.971 6.68 8.081l-0.012 0.046c-0.085 0.62-0.547 0.768-0.816 0.808l-3e-3 1e-3c-0.393 0.056-0.928 0.108-1.536 0.108-2.699 0-6.846-1.037-6.493-7.489l-4.669-4.855c-1.622-1.685-2.515-3.903-2.515-6.244v-12.694l-10.698-10.364v12.305c3.257 3.254 5.909 5.177 5.906 9.545-8e-3 16.095-0.279 15.687 0.734 16.699l6.204 6.212c0.099-1e-3 0.197-3e-3 0.293-3e-3 7.228 0 6.989 5.973 6.677 8.084l-0.012 0.046c-0.086 0.62-0.546 0.768-0.815 0.808l-3e-3 1e-3c-0.394 0.055-0.931 0.108-1.541 0.108-2.692 0-6.821-1.032-6.494-7.432l-6.064-6.07c-0.933-0.935-1.467-2.228-1.467-3.55l9e-3 -14.905c0-3.008-1.79-4.403-3.514-6.124-0.582 1.38-0.961 2.036-2.401 2.703v21.797l5.37 5.662c1.608 1.696 2.493 3.916 2.493 6.253v8.258c5.686 5.269 1.126 9.518-0.629 10.835l-0.041 0.025c-0.204 0.157-0.398 0.213-0.571 0.213-0.249 0-0.455-0.117-0.585-0.213l-4e-3 -1e-3c-1.732-1.291-6.383-5.565-0.649-10.869v-8.248c0-3.237-1.779-4.509-5.365-8.289l-0.037 0.986c-0.251 6.459-6.941 8.286-6.941 11.309v13.852c5.754 5.288 1.177 9.556-0.582 10.876l-0.042 0.024c-0.204 0.158-0.398 0.213-0.57 0.213-0.251 0-0.456-0.117-0.586-0.213h-3e-3c-1.729-1.288-6.362-5.543-0.695-10.829v-13.923c0-1.321 0.536-2.614 1.47-3.547l3.635-3.63c1.176-1.174 1.85-2.801 1.85-4.463v-7.483l-4.683 4.699c0.387 6.514-3.782 7.56-6.49 7.56-0.608 0-1.14-0.052-1.533-0.108l-2e-3 -2e-3c-0.27-0.039-0.731-0.188-0.816-0.807l-0.012-0.046c-0.312-2.111-0.543-8.078 6.684-8.078 0.047 0 0.095 1e-3 0.144 1e-3l6.708-6.731v-15.092c-1.702-0.802-2.467-2.206-2.467-3.736v-7.565l-5.51 5.512c0.271 6.289-3.822 7.308-6.5 7.308-0.613 0-1.151-0.054-1.546-0.109l-3e-3 -2e-3c-0.269-0.041-0.731-0.189-0.816-0.808l-0.012-0.045c-0.311-2.112-0.556-8.09 6.67-8.09 0.139 0 0.279 1e-3 0.424 6e-3l7.293-7.333v-3.755c0-1.247-0.615-2.408-1.647-3.108l-12.32-8.354c-0.282-0.187-0.593-0.272-0.899-0.272-0.908 0-1.783 0.754-1.783 1.856 0 0.447 0.096 0.931 0.427 1.214 2.686 2.274 8.069 5.904 10.643 8.019 2.224 1.831 1.054 5.517-1.935 5.517-0.88 0-1.917-0.32-3.073-1.101l-7.496-4.98v19.701l7.396 6.674c0.079-2e-3 0.158-3e-3 0.236-3e-3 7.226 0 6.991 5.971 6.68 8.081l-0.013 0.045c-0.085 0.62-0.547 0.769-0.816 0.809l-2e-3 1e-3c-0.394 0.056-0.931 0.109-1.54 0.109-2.696 0-6.833-1.037-6.493-7.461l-5.448-4.915v7.162c0 1.652 0.686 3.254 1.881 4.392l1.985 1.894c0.963 0.917 1.516 2.208 1.516 3.54v24.509c5.757 5.29 1.18 9.559-0.58 10.879l-0.041 0.025c-0.204 0.156-0.399 0.212-0.572 0.212-0.249 0-0.454-0.116-0.586-0.212l-2e-3 -1e-3c-1.728-1.287-6.36-5.541-0.698-10.825v-6.368l-4.067 4.062c-1.176 1.174-1.85 2.802-1.85 4.464v11.577c5.775 5.294 1.193 9.568-0.567 10.89l-0.042 0.025c-0.205 0.156-0.398 0.212-0.571 0.212-0.249 0-0.455-0.117-0.585-0.212" style="fill:url(#radialGradient918)"/>
      </g>
     </g>
    </g>
   </g>
   <g transform="matrix(.35278 0 0 -.35278 -3.1095 158.67)">
    <g>
     <g>
      <g>
       <path d="m83.247 61.609v3e-3z" style="fill:url(#linearGradient1096)"/>
      </g>
     </g>
    </g>
   </g>
   <g transform="matrix(.35278 0 0 -.35278 -3.1095 158.67)">
    <g>
     <g>
      <g>
       <path d="m83.247 61.609v3e-3z" style="fill:url(#linearGradient1096)"/>
      </g>
     </g>
    </g>
   </g>
   <g transform="matrix(.35278 0 0 -.35278 56.454 128.09)" style="stroke:#33588e">
    <path d="m0 0c0-45.373-36.783-82.156-82.156-82.156-45.374 0-82.157 36.783-82.157 82.156 0 45.374 36.783 82.157 82.157 82.157 45.373 0 82.156-36.783 82.156-82.157z" style="fill:none;stroke-miterlimit:10;stroke-width:9.058;stroke:#33588e"/>
   </g>
   <g transform="matrix(.35278 0 0 -.35278 26.257 136.92)">
    <path d="M 0,0 0.004,-0.039 C 0.003,-0.063 0.002,2.087 0,0" style="fill:#4778c5"/>
   </g>
   <g transform="matrix(.35278 0 0 -.35278 8.0888 132.1)" style="fill:#33588e">
    <path d="m0 0c-1.098-0.101-2.112 0.742-2.212 1.842-0.103 1.117 0.723 2.11 1.84 2.213 1.119 0.101 2.111-0.725 2.214-1.842 0.099-1.099-0.743-2.112-1.842-2.213m18.771-10.012h-4.711c-0.801 0-1.587 0.322-2.16 0.883l-8.531 8.361c0.667 0.971 1.06 1.924 0.942 3.207-0.228 2.479-2.429 4.311-4.908 4.084s-4.312-2.429-4.085-4.908c0.263-2.867 2.733-4.72 5.959-3.828l8.876-8.699c1.034-1.015 2.458-1.596 3.907-1.596h5.405zm25.648 89.183c0-1.804 1.023-3.544 3.285-4.348v-14.006c0-1.321 0.536-2.613 1.469-3.546l5.078-5.079c1.177-1.176 1.853-2.805 1.854-4.467l0.013-8.472-5.16 5.166c0.238 0.415 0.759 1.239 0.759 2.515 0 2.49-2.025 4.515-4.515 4.515-2.489 0-4.515-2.025-4.515-4.515s2.026-4.515 4.515-4.515c0.86 0 1.437 0.237 1.853 0.395l6.248-6.256c-0.786-1.172-0.19-0.512-7.112-6.887-0.987-0.907-1.551-2.196-1.551-3.536v-8.949l-4.62 4.619c-1.176 1.177-1.849 2.804-1.848 4.465l9e-3 32.556s0.738 0.222 1.517 0.769c1.4 0.985 1.973 2.506 1.824 4.037-0.227 2.331-2.196 4.079-4.491 4.079-0.145 0-0.291-6e-3 -0.438-0.02-2.479-0.241-4.299-2.453-4.06-4.93 0.165-1.694 1.174-3.135 3.164-3.881l4e-3 -1e-3 -0.01-32.609c0-2.315 0.938-4.581 2.576-6.217 6.669-6.671 5.74-5.718 6.373-6.448v-22.245l-5.64 3.748 4e-3 12.847c1e-3 1.32-0.535 2.614-1.469 3.547l-6.941 6.941c2.062 3.609-0.562 7.023-3.76 7.023-2.49 0-4.516-2.025-4.516-4.515 0-2.488 2.026-4.515 4.516-4.515 0.865 0 1.445 0.239 1.861 0.399l7.087-7.086c0.472-0.472 0.743-1.126 0.742-1.794l-6e-3 -11.2-3.173 2.109c-0.873 0.601-1.7 0.853-2.44 0.853-2.724 0-4.26-3.409-2.571-5.266 2.239-2.465 7.884-5.969 10.641-8.019 0.826-0.615 0.505-3.068-1.349-3.068-0.059 0-0.109-2e-3 -0.156-2e-3 -0.604 0-0.805 0.305-13.07 8.626-1.033 0.7-1.647 1.861-1.647 3.108v14.881c0 1.694-0.991 3.376-3.181 3.93v14.605l7.331 7.365c0.662-0.252 1.301-0.367 1.901-0.367 2.585 0 4.463 2.116 4.463 4.487 0 2.49-2.025 4.515-4.514 4.515-3.23 0-5.82-3.448-3.754-7.033l-5.427-5.452v7.47c0 5.638 6.947 6.761 6.947 11.651v14.604c2.315 0.747 3.421 2.484 3.421 4.39 0 2.49-2.025 4.516-4.515 4.516s-4.515-2.026-4.515-4.516c0-1.775 0.954-3.444 3.13-4.302 0-15.849 0.27-15.474-0.745-16.488-4.458-4.465-6.017-5.298-6.225-10.5-3.584 3.78-5.362 5.053-5.362 8.29v8.809c2.378 0.698 3.546 2.5 3.546 4.417 0 2.491-2.026 4.516-4.515 4.516-2.49 0-4.515-2.025-4.515-4.516 0-1.716 0.907-3.37 3.004-4.262v-8.964c0-2.335 0.886-4.557 2.494-6.252l5.371-5.663v-21.873c-1.478-1.092-1.6-2.135-1.838-3.202-2.19 2.188-4.079 3.578-4.078 6.689l8e-3 14.916c1e-3 1.321-0.535 2.615-1.469 3.548l-6.941 6.94c2.065 3.615-0.566 7.024-3.761 7.024-2.489 0-4.514-2.025-4.514-4.516 0-2.373 1.88-4.487 4.461-4.487 0.605 0 1.248 0.116 1.915 0.373 7.592-7.592 7.831-7.479 7.829-8.882l-8e-3 -14.914c-1e-3 -2.317 0.938-4.582 2.577-6.219l4.042-4.039v-8.983l-10.005 9.467c-1.199 1.134-1.886 2.73-1.886 4.38v10.493c0 1.328-0.547 2.619-1.501 3.544l-5.287 5.115c0.237 0.417 0.749 1.235 0.749 2.502 0 2.484-2.026 4.504-4.515 4.504-2.49 0-4.514-2.02-4.514-4.504 0-2.49 2.024-4.515 4.514-4.515 0.869 0 1.45 0.24 1.866 0.402l5.462-5.286c0.474-0.458 0.746-1.1 0.746-1.762v-10.685l-6.487 6.226c0.232 0.416 0.728 1.219 0.728 2.467 0 2.489-2.026 4.515-4.516 4.515-2.489 0-4.515-2.026-4.515-4.515 0-2.484 2.026-4.504 4.515-4.504 0.889 0 1.482 0.25 1.898 0.413 0 0 9.637-9.265 22.748-21.669v-8.777c0-1.602 1.118-3.157 2.182-3.932 4.672-3.345 17.981-13.525 17.981-13.525v-6.891l-14.497 10.203c1.332 3.616-1.256 6.375-4.12 6.375-2.49 0-4.515-2.025-4.515-4.515 0-2.451 1.977-4.498 4.447-4.498 0.822 0 1.699 0.227 2.576 0.742l16.109-11.339v-26.974c4.543-0.984 9.227-1.591 14.016-1.789 0 41.763 3e-3 53.984 5e-3 57.051-0.022 2.156-1.613 2.881-2.381 3.39v36.424c0 0.649 0.274 1.273 0.751 1.713l6.029 5.55c1.717 1.581 2.701 3.827 2.697 6.163l-0.01 8.167c-5e-3 2.316-0.946 4.582-2.582 6.217l-5.077 5.078c-0.472 0.473-0.744 1.127-0.744 1.794v14.012c2.22 0.801 3.265 2.518 3.265 4.342 0 2.491-2.026 4.515-4.515 4.515s-4.514-2.024-4.514-4.515m2.479 0c0 1.123 0.913 2.036 2.035 2.036s2.036-0.913 2.036-2.036c0-1.121-0.914-2.034-2.036-2.034s-2.035 0.913-2.035 2.034m-21.508-9.029c0 1.123 0.913 2.035 2.035 2.035s2.036-0.912 2.036-2.035c0-1.122-0.914-2.035-2.036-2.035s-2.035 0.913-2.035 2.035m11.611-7.142c-0.107 1.117 0.714 2.114 1.83 2.222 0.067 6e-3 0.133 9e-3 0.198 9e-3 1.035 0 1.923-0.787 2.025-1.839 0.108-1.117-0.712-2.113-1.829-2.222-0.067-6e-3 -0.133-9e-3 -0.198-9e-3 -1.036 0-1.924 0.789-2.026 1.839m-26.298-2.632c0 1.124 0.913 2.036 2.036 2.036 1.122 0 2.034-0.912 2.034-2.036 0-1.122-0.912-2.035-2.034-2.035-1.123 0-2.036 0.913-2.036 2.035m34.464-13.434c0 1.122 0.912 2.035 2.035 2.035 1.122 0 2.036-0.913 2.036-2.035 0-1.123-0.914-2.035-2.036-2.035-1.123 0-2.035 0.912-2.035 2.035m-46.188-2.181c0 1.124 0.914 2.036 2.035 2.036 1.123 0 2.037-0.912 2.037-2.036 0-1.121-0.914-2.034-2.037-2.034-1.121 0-2.035 0.913-2.035 2.034m29.738-4.756c0 1.123 0.913 2.037 2.036 2.037 1.122 0 2.035-0.914 2.035-2.037 0-1.122-0.913-2.034-2.035-2.034-1.123 0-2.036 0.912-2.036 2.034m-35.882-6.894c0 1.116 0.914 2.026 2.036 2.026s2.035-0.91 2.035-2.026c0-1.122-0.913-2.036-2.035-2.036s-2.036 0.914-2.036 2.036m33.962-12.152c0 1.123 0.914 2.035 2.037 2.035 1.122 0 2.035-0.912 2.035-2.035 0-1.122-0.913-2.036-2.035-2.036-1.123 0-2.037 0.914-2.037 2.036m-36.162-1.001c0 1.123 0.912 2.035 2.035 2.035s2.035-0.912 2.035-2.035c0-1.117-0.912-2.026-2.035-2.026s-2.035 0.909-2.035 2.026m26.192-46.822c0 1.121 0.913 2.035 2.035 2.035 1.123 0 2.036-0.914 2.036-2.035 0-1.123-0.913-2.037-2.036-2.037-1.122 0-2.035 0.914-2.035 2.037" style="fill:#33588e"/>
   </g>
   <g transform="matrix(.35278 0 0 -.35278 106.01 126.14)">
    <path d="m0 0h21.283c5.267 0.083 9.218 1.612 11.852 4.586 2.592 2.763 3.886 6.161 3.886 10.196-0.084 4.843-1.634 8.348-4.651 10.514-2.379 1.912-5.82 2.867-10.322 2.867h-22.048zm-14.083 40.717h36.258c7.731 0 14.04-2.04 18.927-6.118 5.903-4.629 8.983-11.236 9.238-19.817-0.169-12.616-6.159-21.197-17.97-25.743l21.539-41.228h-16.759l-19.18 39.698h-17.97v-39.698h-14.083z" style="fill:#33588e"/>
   </g>
   <g transform="matrix(.35278 0 0 -.35278 124.87 111.78)">
    <path d="m0 0h14.911l21.092-70.729h0.256l21.154 70.729h14.911l-28.994-87.705c-1.026-3.105-3.928-5.201-7.197-5.201-3.272 0-6.174 2.098-7.199 5.206z" style="fill:#33588e"/>
   </g>
   <g transform="matrix(.35278 0 0 -.35278 156.93 128.16)">
    <path d="m0 0c0-9.135 0.34-15.315 1.021-18.543 0.594-3.228 1.804-5.842 3.631-7.837 1.487-1.912 3.442-3.464 5.865-4.651 2.377-1.405 5.224-2.104 8.538-2.104 3.353 0 6.263 0.699 8.729 2.104 2.335 1.187 4.206 2.739 5.608 4.651 1.827 1.995 3.079 4.609 3.758 7.837 0.639 3.228 0.956 9.408 0.956 18.543 0 9.133-0.317 15.356-0.956 18.67-0.679 3.144-1.931 5.713-3.758 7.71-1.402 1.912-3.273 3.505-5.608 4.78-2.466 1.231-5.376 1.89-8.729 1.975-3.314-0.085-6.161-0.744-8.538-1.975-2.423-1.275-4.378-2.868-5.865-4.78-1.827-1.997-3.037-4.566-3.631-7.71-0.681-3.314-1.021-9.537-1.021-18.67m-14.145 0c0 10.79 0.32 18.011 0.957 21.666 0.677 3.652 1.719 6.604 3.121 8.857 2.251 4.29 5.864 8.114 10.833 11.47 4.884 3.399 10.98 5.14 18.289 5.225 7.391-0.085 13.549-1.826 18.478-5.225 4.885-3.356 8.412-7.18 10.578-11.47 1.571-2.253 2.655-5.205 3.251-8.857 0.551-3.655 0.827-10.876 0.827-21.666 0-10.621-0.276-17.801-0.827-21.537-0.596-3.738-1.68-6.734-3.251-8.986-2.166-4.29-5.693-8.071-10.578-11.341-4.929-3.399-11.087-5.183-18.478-5.354-7.309 0.171-13.405 1.955-18.289 5.354-4.969 3.27-8.582 7.051-10.833 11.341-0.68 1.404-1.296 2.74-1.847 4.015-0.511 1.316-0.935 2.974-1.274 4.971-0.637 3.736-0.957 10.916-0.957 21.537" style="fill:#33588e"/>
   </g>
   <g transform="matrix(.35278 0 0 -.35278 185.2 126.14)">
    <path d="m0 0h21.283c5.268 0.083 9.218 1.612 11.854 4.586 2.589 2.763 3.886 6.161 3.886 10.196-0.085 4.843-1.637 8.348-4.651 10.514-2.38 1.912-5.821 2.867-10.324 2.867h-22.048zm-14.081 40.717h36.257c7.731 0 14.04-2.04 18.926-6.118 5.904-4.629 8.984-11.236 9.238-19.817-0.169-12.616-6.159-21.197-17.968-25.743l21.537-41.228h-16.76l-19.179 39.698h-17.97v-39.698h-14.081z" style="fill:#33588e"/>
   </g>
   <g transform="matrix(.35278 0 0 -.35278 254.32 130.23)">
    <path d="m0 0h-36.768v-40.592h-14.081v92.906h14.081v-39.826h36.768v39.826h14.083v-92.906h-14.083z" style="fill:#33588e"/>
   </g>
   <g transform="matrix(.35278 0 0 -.35278 83.51 118.5)" style="fill:#33588e">
    <path d="m0 0h8e-3l0.122 0.366 0.122-0.366h3e-3l0.362-1.093 24.315-72.762h14.831l-31.759 87.368c-1.209 3.325-4.37 5.539-7.908 5.539-3.539 0-6.7-2.214-7.908-5.539l-31.759-87.368h14.91l23.71 70.983z" style="fill:#33588e"/>
   </g>
   <g transform="matrix(.35278 0 0 -.35278 218.79 118.5)">
    <path d="m0 0h8e-3l0.122 0.366 0.122-0.366h3e-3l0.362-1.093 24.315-72.762h14.83l-31.759 87.368c-1.209 3.325-4.369 5.539-7.908 5.539-3.538 0-6.699-2.214-7.908-5.539l-31.759-87.368h14.911l23.709 70.983z" style="fill:#33588e"/>
   </g>
  </g>
 </g>
</svg>
