<svg width="686" height="169" viewBox="0 0 686 169" fill="none" xmlns="http://www.w3.org/2000/svg">
<path d="M65.5 12C101.675 12 131 41.3253 131 77.5C131 113.675 101.675 143 65.5 143C29.3253 143 0 113.675 0 77.5C0 41.3253 29.3253 12 65.5 12ZM66 23C35.6243 23 11 47.6243 11 78C11 108.376 35.6243 133 66 133C96.3757 133 121 108.376 121 78C121 47.6243 96.3757 23 66 23Z" fill="black"/>
<rect x="70.2083" y="83.686" width="11" height="56" transform="rotate(-124.359 70.2083 83.686)" fill="black"/>
<path d="M215.064 104.616L217.944 107.208C217.112 108.168 215.896 109.288 214.296 110.568C212.696 111.848 210.68 113.064 208.248 114.216C205.88 115.304 203.064 116.232 199.8 117C196.6 117.768 192.952 118.152 188.856 118.152C182.392 118.152 176.824 117.16 172.152 115.176C167.48 113.128 163.64 110.472 160.632 107.208C157.624 103.88 155.384 100.104 153.912 95.88C152.504 91.592 151.8 87.208 151.8 82.728C151.8 77.544 152.696 72.872 154.488 68.712C156.28 64.488 158.808 60.904 162.072 57.96C165.336 54.952 169.24 52.648 173.784 51.048C178.392 49.448 183.48 48.648 189.048 48.648C192.888 48.648 196.312 49.032 199.32 49.8C202.328 50.568 204.952 51.624 207.192 52.968C209.432 54.312 211.288 55.912 212.76 57.768C214.296 59.624 215.544 61.64 216.504 63.816H209.4C208.952 62.472 208.152 61.16 207 59.88C205.912 58.536 204.472 57.352 202.68 56.328C200.952 55.304 198.936 54.472 196.632 53.832C194.392 53.192 191.896 52.872 189.144 52.872C185.112 52.872 181.368 53.608 177.912 55.08C174.52 56.552 171.576 58.6 169.08 61.224C166.584 63.848 164.632 66.984 163.224 70.632C161.88 74.216 161.208 78.184 161.208 82.536C161.208 86.632 161.848 90.568 163.128 94.344C164.472 98.12 166.424 101.448 168.984 104.328C171.544 107.208 174.744 109.512 178.584 111.24C182.424 112.968 186.84 113.832 191.832 113.832C200.792 113.832 208.536 110.76 215.064 104.616ZM240.1 83.592V117H231.364V49.8H240.1V79.176H280.324V49.8H289.06V117H280.324V83.592H240.1ZM312.083 49.8H333.875C338.163 49.8 341.715 50.408 344.531 51.624C347.347 52.776 349.555 54.248 351.155 56.04C352.819 57.768 353.971 59.656 354.611 61.704C355.315 63.752 355.667 65.64 355.667 67.368C355.667 69.288 355.347 71.272 354.707 73.32C354.067 75.304 353.043 77.16 351.635 78.888C350.227 80.616 348.403 82.056 346.163 83.208C343.987 84.36 341.363 85.032 338.291 85.224V85.608L339.251 86.088C340.019 86.472 340.659 86.952 341.171 87.528C341.747 88.104 342.451 89.032 343.283 90.312C344.179 91.592 345.363 93.416 346.835 95.784C348.307 98.088 350.387 101.192 353.075 105.096C353.971 106.44 354.835 107.656 355.667 108.744C356.499 109.768 357.363 110.664 358.259 111.432C359.155 112.136 360.115 112.68 361.139 113.064C362.163 113.448 363.347 113.64 364.691 113.64C365.011 113.64 365.331 113.64 365.651 113.64C365.971 113.576 366.291 113.512 366.611 113.448V117C365.715 117.512 364.819 117.832 363.923 117.96C363.027 118.088 361.875 118.152 360.467 118.152C358.547 118.152 356.883 117.896 355.475 117.384C354.131 116.872 352.915 116.2 351.827 115.368C350.739 114.472 349.715 113.416 348.755 112.2C347.859 110.984 346.931 109.64 345.971 108.168L338.387 96.936C337.235 95.144 336.243 93.64 335.411 92.424C334.579 91.208 333.683 90.216 332.723 89.448C331.763 88.68 330.675 88.136 329.459 87.816C328.307 87.496 326.835 87.336 325.043 87.336H320.819V117H312.083V49.8ZM320.819 54.024V83.016H330.707C333.267 83.016 335.507 82.568 337.427 81.672C339.411 80.776 341.075 79.624 342.419 78.216C343.763 76.744 344.755 75.144 345.395 73.416C346.099 71.624 346.451 69.864 346.451 68.136C346.451 66.088 346.067 64.2 345.299 62.472C344.595 60.744 343.539 59.272 342.131 58.056C340.723 56.776 339.027 55.784 337.043 55.08C335.123 54.376 332.947 54.024 330.515 54.024H320.819ZM374.269 83.4C374.269 79.752 374.941 75.88 376.285 71.784C377.693 67.688 379.869 63.944 382.813 60.552C385.757 57.096 389.501 54.248 394.045 52.008C398.589 49.768 404.029 48.648 410.365 48.648C416.765 48.648 422.301 49.8 426.973 52.104C431.709 54.344 435.613 57.192 438.685 60.648C441.757 64.104 444.029 67.88 445.501 71.976C446.973 76.008 447.709 79.816 447.709 83.4C447.709 85.768 447.357 88.264 446.653 90.888C446.013 93.512 445.021 96.136 443.677 98.76C442.397 101.32 440.733 103.784 438.685 106.152C436.637 108.456 434.205 110.504 431.389 112.296C428.637 114.088 425.501 115.528 421.981 116.616C418.525 117.64 414.653 118.152 410.365 118.152C404.029 118.152 398.589 117.032 394.045 114.792C389.501 112.488 385.757 109.608 382.813 106.152C379.869 102.696 377.693 98.952 376.285 94.92C374.941 90.824 374.269 86.984 374.269 83.4ZM383.677 83.4C383.677 87.88 384.349 92.008 385.693 95.784C387.101 99.496 388.989 102.696 391.357 105.384C393.789 108.072 396.637 110.184 399.901 111.72C403.165 113.192 406.717 113.928 410.557 113.928C414.333 113.928 417.885 113.192 421.213 111.72C424.605 110.184 427.549 108.072 430.045 105.384C432.605 102.696 434.621 99.496 436.093 95.784C437.565 92.008 438.301 87.88 438.301 83.4C438.301 78.92 437.565 74.824 436.093 71.112C434.621 67.336 432.605 64.104 430.045 61.416C427.549 58.728 424.605 56.648 421.213 55.176C417.885 53.64 414.333 52.872 410.557 52.872C406.717 52.872 403.165 53.64 399.901 55.176C396.637 56.648 393.789 58.728 391.357 61.416C388.989 64.104 387.101 67.336 385.693 71.112C384.349 74.824 383.677 78.92 383.677 83.4ZM518.195 49.8H522.611V118.152H522.131L468.851 65.64H468.467V117H464.051V48.648H464.531L517.811 101.16H518.195V49.8ZM538.894 83.4C538.894 79.752 539.566 75.88 540.91 71.784C542.318 67.688 544.494 63.944 547.438 60.552C550.382 57.096 554.126 54.248 558.67 52.008C563.214 49.768 568.654 48.648 574.99 48.648C581.39 48.648 586.926 49.8 591.598 52.104C596.334 54.344 600.238 57.192 603.31 60.648C606.382 64.104 608.654 67.88 610.126 71.976C611.598 76.008 612.334 79.816 612.334 83.4C612.334 85.768 611.982 88.264 611.278 90.888C610.638 93.512 609.646 96.136 608.302 98.76C607.022 101.32 605.358 103.784 603.31 106.152C601.262 108.456 598.83 110.504 596.014 112.296C593.262 114.088 590.126 115.528 586.606 116.616C583.15 117.64 579.278 118.152 574.99 118.152C568.654 118.152 563.214 117.032 558.67 114.792C554.126 112.488 550.382 109.608 547.438 106.152C544.494 102.696 542.318 98.952 540.91 94.92C539.566 90.824 538.894 86.984 538.894 83.4ZM548.302 83.4C548.302 87.88 548.974 92.008 550.318 95.784C551.726 99.496 553.614 102.696 555.982 105.384C558.414 108.072 561.262 110.184 564.526 111.72C567.79 113.192 571.342 113.928 575.182 113.928C578.958 113.928 582.51 113.192 585.838 111.72C589.23 110.184 592.174 108.072 594.67 105.384C597.23 102.696 599.246 99.496 600.718 95.784C602.19 92.008 602.926 87.88 602.926 83.4C602.926 78.92 602.19 74.824 600.718 71.112C599.246 67.336 597.23 64.104 594.67 61.416C592.174 58.728 589.23 56.648 585.838 55.176C582.51 53.64 578.958 52.872 575.182 52.872C571.342 52.872 567.79 53.64 564.526 55.176C561.262 56.648 558.414 58.728 555.982 61.416C553.614 64.104 551.726 67.336 550.318 71.112C548.974 74.824 548.302 78.92 548.302 83.4ZM620.708 100.008H627.236C627.3 101.096 627.556 102.44 628.004 104.04C628.452 105.576 629.316 107.08 630.596 108.552C631.876 110.024 633.732 111.304 636.164 112.392C638.596 113.416 641.828 113.928 645.86 113.928C650.916 113.928 654.948 112.968 657.956 111.048C661.028 109.128 662.564 106.088 662.564 101.928C662.564 98.6 661.604 95.944 659.684 93.96C657.764 91.976 655.332 90.312 652.388 88.968C649.508 87.56 646.372 86.312 642.98 85.224C639.588 84.136 636.42 82.824 633.476 81.288C630.596 79.752 628.196 77.832 626.276 75.528C624.356 73.224 623.396 70.184 623.396 66.408C623.396 63.528 623.972 60.968 625.124 58.728C626.34 56.488 627.94 54.632 629.924 53.16C631.972 51.688 634.308 50.568 636.932 49.8C639.62 49.032 642.436 48.648 645.38 48.648C648.196 48.648 650.884 49 653.444 49.704C656.068 50.344 658.404 51.336 660.452 52.68C662.5 53.96 664.196 55.56 665.54 57.48C666.884 59.336 667.748 61.448 668.132 63.816H661.604C661.092 60.04 659.364 57.288 656.42 55.56C653.54 53.768 650.02 52.872 645.86 52.872C643.364 52.872 641.156 53.192 639.236 53.832C637.316 54.408 635.684 55.208 634.34 56.232C633.06 57.192 632.068 58.344 631.364 59.688C630.724 61.032 630.404 62.472 630.404 64.008C630.404 66.76 631.396 68.968 633.38 70.632C635.364 72.296 637.828 73.768 640.772 75.048C643.78 76.328 647.012 77.544 650.468 78.696C653.988 79.848 657.22 81.288 660.164 83.016C663.172 84.68 665.668 86.792 667.652 89.352C669.636 91.848 670.628 95.08 670.628 99.048C670.628 101.928 670.052 104.552 668.9 106.92C667.748 109.288 666.116 111.304 664.004 112.968C661.892 114.632 659.332 115.912 656.324 116.808C653.38 117.704 650.052 118.152 646.34 118.152C642.692 118.152 639.332 117.736 636.26 116.904C633.188 116.008 630.5 114.792 628.196 113.256C625.956 111.656 624.164 109.736 622.82 107.496C621.54 105.256 620.836 102.76 620.708 100.008Z" fill="black"/>
</svg>
