<?xml version="1.0" encoding="UTF-8"?>
<svg width="94.915mm" height="22.123mm" version="1.1" viewBox="0 0 94.915 22.123" xmlns="http://www.w3.org/2000/svg">
 <g transform="translate(-47.969 -106.05)">
  <g transform="matrix(.35278 0 0 -.35278 -3.1095 158.67)">
   <g>
    <g></g>
   </g>
  </g>
  <g transform="matrix(.12761 0 0 -.12761 47.969 128.18)">
   <g>
    <g></g>
   </g>
  </g>
  <g transform="matrix(.12761 0 0 -.12761 47.969 128.18)">
   <g>
    <g>
     <g>
      <path d="m83.247 61.609v3e-3z"/>
     </g>
    </g>
   </g>
  </g>
  <g transform="matrix(.12761 0 0 -.12761 47.969 128.18)">
   <g>
    <g>
     <g>
      <path d="m83.247 61.609v3e-3z"/>
     </g>
    </g>
   </g>
  </g>
  <path d="m0 0"/>
  <g transform="matrix(.12761 0 0 -.12761 58.591 120.31)">
   <path d="M 0,0 0.004,-0.039 C 0.003,-0.063 0.002,2.087 0,0"/>
  </g>
  <g transform="translate(-.0035606 -.0046714)">
   <path transform="matrix(.26458 0 0 .26458 47.969 106.05)" d="m38.902 83.444c-0.32003-0.037289-1.2926-0.14896-2.1612-0.24815-6.9214-0.79039-14.232-3.7473-19.943-8.0664-9.229-6.9794-15.236-17.469-16.463-28.745-0.23251-2.1379-0.23238-7.0077 2.463e-4 -9.1437 1.5045-13.815 10.106-26.224 22.568-32.559 4.1334-2.1012 8.5248-3.5106 13.09-4.2011 2.767-0.41853 8.8578-0.42356 11.554-0.0095282 4.8926 0.75121 8.8608 2.0183 13.149 4.1986 9.8179 4.9923 17.24 13.635 20.689 24.092 0.96689 2.9312 1.4202 4.9257 1.8326 8.0631 0.36795 2.799 0.24544 9.0318-0.23038 11.721-1.5662 8.8506-5.4973 16.475-11.69 22.671-3.4031 3.4054-6.7989 5.8328-11.199 8.0054-4.0611 2.0052-8.0545 3.2463-12.585 3.9111-1.6507 0.24223-7.4159 0.45043-8.6123 0.31103zm3.6575-16.936c0-9.3309 0.05251-12.992 0.1907-13.295 0.10488-0.2302 0.7782-0.80424 1.4962-1.2757l1.3056-0.85712-0.01262-1.4337-0.01262-1.4337-1.5904-1.4131c-2.1915-1.9473-2.3706-2.3497-2.3727-5.3326-0.0015-2.1854-0.01468-2.2692-0.41306-2.6435-0.57561-0.54076-0.98339-1.6843-0.85143-2.3878 0.13328-0.71046 0.97137-1.8887 1.5218-2.1395 0.36908-0.16817 0.47968-0.12662 1.0119 0.38009 0.70691 0.67302 1.0566 1.4134 1.0566 2.237 0 0.67297-0.169 1.0544-0.8553 1.9302-0.45883 0.58555-0.47466 0.66892-0.47377 2.4937 0.0013 2.5902 0.11658 2.9146 1.5134 4.2581 0.64109 0.6166 1.2359 1.146 1.3219 1.1765 0.09561 0.03391 0.15627-2.2171 0.15627-5.7995 0-4.0729 0.06072-6.0575 0.1995-6.5207 0.12223-0.40798 0.60514-1.1079 1.2469-1.8072l1.0474-1.1413v-7.9021l-1.5916-1.5761c-2.3395-2.3167-2.3044-2.2236-2.3693-6.2875l-0.05399-3.3814-0.54809-0.71803c-0.93933-1.2306-0.9177-2.3224 0.07073-3.5704 0.73522-0.92829 1.0762-0.98802 1.7799-0.31178 1.2014 1.1545 1.3892 2.3671 0.5673 3.6631-0.26537 0.41845-0.56462 0.81157-0.665 0.87361-0.24614 0.15212-0.24287 5.7708 0.0039 6.66 0.13183 0.47508 0.55817 1.0448 1.4928 1.995l1.3083 1.33 0.0025-1.6042c0.0024-1.5597-0.01365-1.6282-0.57937-2.4689-0.94025-1.3972-0.78954-2.5902 0.48156-3.8119 0.55549-0.53391 0.62023-0.55547 1.022-0.34043 0.61319 0.32817 1.364 1.4182 1.4898 2.1629 0.12316 0.729-0.30044 1.8647-0.89118 2.3893-0.35225 0.31281-0.35664 0.39056-0.35664 6.3186 0 3.4675-0.06957 6.2445-0.16475 6.5763-0.09298 0.32421-0.56051 0.97551-1.0733 1.4952-1.2628 1.2797-1.422 1.7451-1.422 4.1572 0 1.1002 0.0462 2.0003 0.10266 2.0003 0.05646 0 0.69237-0.53161 1.4131-1.1814 1.2291-1.108 1.3105-1.2234 1.3105-1.8594 0-1.6406 1.1969-2.7997 2.9326-2.8401 1.0444-0.02433 1.2191 0.13962 1.2174 1.1427-0.0013 0.8446-0.48495 1.9172-1.0727 2.3796-0.25062 0.19714-0.90837 0.45194-1.4617 0.56622-0.92657 0.19138-1.1416 0.33041-2.724 1.7612l-1.718 1.5535v4.8082c0 2.6445 0.0399 4.8082 0.08867 4.8082s0.853-0.51243 1.7872-1.1387c2.1319-1.4293 2.6339-1.6875 3.2806-1.6875 0.70073 0 1.0775 0.2281 1.312 0.79433 0.39609 0.95625 0.13329 1.2492-3.6422 4.0594-1.6525 1.23-2.0887 1.6384-2.1298 1.994-0.05595 0.48446 0.45001 1.1323 0.88434 1.1323 0.36516 0 6.7148-4.3084 7.0071-4.7545 0.13604-0.20762 0.28701-0.92477 0.33549-1.5937l0.08816-1.2162-1.9034-1.8703c-1.7654-1.7347-1.9504-1.8705-2.5523-1.873-1.4999-0.0063-2.5958-1.2314-2.6204-2.9292-0.01611-1.1142 0.16502-1.2694 1.3548-1.1609 1.6139 0.14717 2.4153 0.8915 2.7059 2.5134 0.16709 0.93239 0.26182 1.0816 1.4514 2.2859 0.69998 0.70864 1.3306 1.2884 1.4013 1.2884 0.07072 0 0.12859-1.0022 0.12859-2.2272v-2.2272l1.1637-1.0218v-7.2364l-1.7011-1.7069c-1.4167-1.4216-1.786-1.7069-2.2091-1.7069-0.89582 0-1.9488-0.66316-2.3657-1.4899-0.44235-0.87722-0.50582-2.1838-0.12158-2.5027 0.34268-0.2844 1.9296-0.1113 2.6222 0.28602 0.66567 0.38189 1.2816 1.5629 1.2816 2.4575 0 0.61969 0.10301 0.77782 1.2469 1.914l1.2469 1.2386v-1.9588c0-2.8882-0.12374-3.231-1.7899-4.9594-1.0278-1.0662-1.4391-1.6203-1.5467-2.0842-0.08067-0.3475-0.14845-2.1019-0.15063-3.8986l-4e-3 -3.2667-0.58188-0.86466c-0.97134-1.4434-0.7357-2.7619 0.7254-4.0588 0.31971-0.28378 0.40514-0.29318 0.79042-0.08699 0.57079 0.30548 1.3389 1.441 1.4786 2.1859 0.12865 0.68574-0.3082 1.8411-0.8922 2.3597-0.34463 0.30604-0.35664 0.44199-0.35664 4.0389v3.7222l1.4047 1.4822c1.1268 1.189 1.4557 1.6539 1.6625 2.3504 0.1418 0.47748 0.25781 1.0575 0.25781 1.2889 0 0.3969 0.04769 0.37397 0.84082-0.40424 0.46245-0.45375 1.061-1.1558 1.33-1.5601l0.48918-0.73507v-2.6111c0-2.1671-0.04428-2.6479-0.26034-2.8272-0.66572-0.5525-1.105-1.9271-0.87827-2.7482 0.17192-0.62265 1.3646-2.0639 1.7079-2.0639 0.32081 0 1.3907 1.2017 1.6728 1.8791 0.34666 0.83209 0.19167 1.6137-0.4996 2.5193l-0.54223 0.71036-0.06686 2.5578c-0.08124 3.1082-0.16979 3.323-2.321 5.6302l-1.4725 1.5793v10.582l0.49875 0.41967c0.27431 0.23082 0.49875 0.52524 0.49875 0.65427 0 0.70663 1.4088-0.57263 1.8191-1.6519 0.10631-0.27962 0.17591-2.072 0.17591-4.5303 0-3.1124 0.05445-4.1933 0.23185-4.6026 0.12752-0.29423 0.95046-1.2442 1.8288-2.1111 1.4971-1.4776 1.5969-1.6183 1.5969-2.2507 0-1.0501 0.61138-2.0892 1.4899-2.5323 0.87722-0.44236 2.1838-0.50583 2.5027-0.12158 0.2844 0.34268 0.1113 1.9296-0.28602 2.6222-0.36787 0.64123-1.5537 1.2816-2.3733 1.2816-0.52781 0-0.76959 0.17889-2.2507 1.6653l-1.6594 1.6653-0.08312 4.5276-0.08313 4.5276-0.44446 0.74812c-0.24445 0.41147-0.86166 1.157-1.3716 1.6568l-0.9271 0.9087v3.0397c0 1.6719 0.05523 3.0397 0.12274 3.0397 0.06751 0 1.2645-1.14 2.66-2.5333l2.5373-2.5333v-3.2553c0-4.2841 0.05063-4.4523 1.976-6.5641 1.3954-1.5306 1.4781-1.6632 1.5657-2.5117 0.16598-1.6082 0.98425-2.427 2.6541-2.6559 0.4361-0.05977 0.8828-0.02292 1.0943 0.09028 0.77622 0.41542 0.23524 2.7807-0.80976 3.5404-0.23048 0.16756-0.82586 0.36897-1.3231 0.44757-0.85462 0.1351-0.98225 0.22356-2.336 1.6191-1.1624 1.1983-1.4688 1.6227-1.6279 2.2542-0.21537 0.8553-0.27368 5.9508-0.0681 5.9508 0.07029 0 0.847-0.72942 1.726-1.6209 1.5415-1.5635 1.6016-1.6525 1.695-2.5098 0.12951-1.1892 0.54664-1.8606 1.4361-2.3115 0.80875-0.40993 2.1338-0.50384 2.463-0.17456 0.32927 0.32927 0.23537 1.6543-0.17456 2.463-0.43952 0.86713-1.1443 1.323-2.2742 1.4711-0.78964 0.10348-0.89593 0.19323-4.8997 4.1373l-4.0925 4.0316h1.5031c1.8516 0 2.3682-0.20054 3.6391-1.4129 0.87362-0.8333 0.97851-1.0066 1.0482-1.7324 0.17873-1.8601 1.3317-2.8953 3.1225-2.8035l0.91438 0.04686 0.04837 1.0875c0.04044 0.90925-0.01406 1.1792-0.3325 1.6472-0.58246 0.85596-1.1708 1.2098-2.1557 1.2966-0.82252 0.07245-0.9617 0.1527-1.9658 1.1333-1.5128 1.4775-2.1194 1.7076-4.8413 1.837-2.1929 0.10425-2.232 0.11298-2.7647 0.61623l-0.54031 0.51048v1.7294c0 1.2124-0.07649 1.8906-0.25588 2.2687-0.18375 0.38721-1.5235 1.4906-4.7523 3.9138-2.473 1.856-4.5303 3.4629-4.5717 3.5708-0.04143 0.10796-0.05375 0.90747-0.02739 1.7767l0.04794 1.5804 7.6475-5.401 0.10237-0.92489c0.14484-1.3086 0.71317-2.0091 1.913-2.3578 1.2918-0.37554 1.9854-0.2244 2.1228 0.46263 0.05776 0.28882 0.05678 0.79211-0.0022 1.1184-0.25658 1.4197-0.98559 2.0885-2.5958 2.3813-0.96418 0.17534-1.3465 0.4046-5.1561 3.0919l-4.1147 2.9025v5.6266c0 4.57 0.04151 5.6266 0.22104 5.6266 0.12157 0 1.1604-0.25744 2.3084-0.57209 14.262-3.9088 24.851-15.777 27.154-30.434 0.371-2.3614 0.49524-6.9085 0.25445-9.3129-0.8674-8.6621-4.4423-16.403-10.391-22.499-6.1692-6.3224-13.555-10.012-22.373-11.178-2.0324-0.2687-7.1113-0.2687-9.1437 0-8.6774 1.1472-16.135 4.8296-22.14 10.932-3.0502 3.0995-5.109 5.9896-6.9673 9.7809-4.3074 8.7875-4.9993 19.031-1.9178 28.395 3.8253 11.625 13.319 20.763 25.096 24.155 1.0817 0.31161 1.9992 0.56657 2.0388 0.56657 0.03964 0 0.05236-2.4792 0.02827-5.5093l-0.0438-5.5093-3.8665-2.7253c-3.2751-2.3085-3.9155-2.6991-4.1869-2.5538-1.0212 0.54655-2.4551-0.08736-2.8407-1.2559-0.23731-0.71905-0.12318-1.2214 0.42573-1.8737 0.84027-0.9986 2.1958-1.0376 3.0873-0.08893 0.32249 0.34318 0.40131 0.61101 0.41317 1.404l0.01466 0.97991 3.4303 2.4149c1.8867 1.3282 3.4698 2.4149 3.5182 2.4149 0.04832 0 0.08785-0.77973 0.08785-1.7327v-1.7327l-4.5303-3.4105c-2.5157-1.8939-4.6597-3.6299-4.8212-3.9038-0.16331-0.27694-0.29094-0.82855-0.29094-1.2574v-0.76404l-0.87281-9.97e-4c-1.7007-0.0018-2.0024-0.1798-4.5369-2.677l-2.3441-2.3095h-0.82419c-0.94219 0-1.443-0.28288-1.8318-1.0346-0.57329-1.1086 0.13387-2.5986 1.3991-2.9479 1.6343-0.45124 3.083 1.4275 2.2873 2.9662l-0.23962 0.46337 4.6332 4.3767h2.345l-0.04916-1.0761-0.04916-1.0761-5.4862-5.2171c-5.1367-4.8847-5.5152-5.2088-5.9402-5.0877-1.0265 0.29254-2.2891-0.5388-2.5378-1.671-0.13611-0.6197 0.30745-1.5883 0.9383-2.049 0.54733-0.39968 1.6224-0.40856 2.218-0.01833 0.80373 0.52662 1.1297 1.647 0.7611 2.6164-0.14195 0.37336-0.01554 0.53687 1.4962 1.9353l1.6513 1.5275v-5.9191l-1.5047-1.4084c-1.4558-1.3626-1.5284-1.407-2.2301-1.3638-1.823 0.1121-2.8746-1.6617-1.8701-3.1545 0.75904-1.128 2.2944-1.1883 3.1888-0.12536 0.55341 0.65769 0.66287 1.1551 0.41766 1.8982l-0.20123 0.60972 1.4139 1.4357c0.77767 0.78962 1.497 1.5991 1.5985 1.7988 0.11409 0.22444 0.18496 1.4627 0.18553 3.2419 4.98e-4 1.5833 0.07881 3.178 0.17402 3.5437 0.14215 0.54614 0.6518 1.133 2.8513 3.2834 1.473 1.4401 2.7414 2.6184 2.8185 2.6184 0.07713 0 0.14023-0.99327 0.14023-2.2073v-2.2073l-1.1822-1.1593c-0.68436-0.67109-1.3488-1.5094-1.5778-1.9905-0.38339-0.80575-0.39557-0.95773-0.39715-4.9542-0.0013-3.2514-0.05185-4.2178-0.23923-4.5719-0.13068-0.24691-0.97232-1.1754-1.8703-2.0632l-1.6327-1.6143-0.85919 0.021414c-1.5437 0.03848-2.3018-0.78224-2.2356-2.4204 0.01212-0.30002 0.22647-0.68114 0.58439-1.0391 0.4928-0.4928 0.67229-0.56525 1.4004-0.56525 1.503 0 2.4378 1.2729 1.9579 2.6659l-0.21717 0.63033 1.8217 1.8016c1.0019 0.99087 1.9261 2.0423 2.0537 2.3366 0.17771 0.40975 0.23202 1.4909 0.23202 4.6188 0 3.1567 0.05373 4.2124 0.2367 4.6503 0.2383 0.57032 1.5209 2.0828 1.7663 2.0828 0.07253 0 0.17946-0.21668 0.23763-0.48151 0.05817-0.26483 0.25114-0.61308 0.42883-0.77389 0.30735-0.27815 0.32284-0.55209 0.31828-5.6282l-0.0048-5.3358-1.6548-1.799c-2.063-2.2428-2.1594-2.5084-2.1594-5.9506 0-2.2956-0.02098-2.459-0.32818-2.5565-0.93433-0.29654-1.363-2.0058-0.72282-2.8823 0.46326-0.63429 1.4307-1.0785 2.0518-0.9421 2.0163 0.44286 2.3379 3.143 0.46661 3.9181l-0.50356 0.20858 0.05839 2.5913c0.05541 2.4592 0.08105 2.6294 0.50285 3.3394 0.24445 0.41147 0.85062 1.1461 1.347 1.6326l0.90256 0.88446 0.09877-0.83396c0.14029-1.1845 0.47929-1.7509 1.9653-3.2837l1.31-1.3512v-7.801l-0.41601-0.18954c-0.49373-0.22496-1.0787-1.1225-1.0796-1.6564-3.32e-4 -0.20867 0.1071-0.6372 0.23875-0.9523 0.79456-1.9016 3.6553-1.4532 3.8588 0.60491 0.08935 0.90361-0.17841 1.4363-0.98518 1.96l-0.61922 0.40192v3.8068c0 2.5311-0.06364 3.9285-0.18989 4.17-0.10444 0.19972-0.77213 0.97273-1.4838 1.7178-0.8792 0.9205-1.3509 1.5599-1.4717 1.995-0.20309 0.73142-0.24595 4.5472-0.05107 4.5472 0.07072 0 0.71427-0.58914 1.4301-1.3092 1.1525-1.1593 1.2805-1.3484 1.1183-1.6516-0.4997-0.9337 0.05556-2.3644 1.0845-2.7943 0.76032-0.31768 1.4198-0.17528 2.1476 0.46368 0.99184 0.87085 0.93261 2.1607-0.14068 3.0639-0.43017 0.36196-0.63816 0.4175-1.3883 0.3707l-0.88231-0.05505-3.4978 3.4853v3.6077c0 3.4347 0.01559 3.6127 0.3252 3.7109 0.17886 0.05677 0.51552 0.32939 0.74812 0.60583l0.42293 0.50262v3.9826c0 3.0032 0.05622 4.1171 0.22861 4.5297 0.24847 0.59467 0.57744 0.85255 4.3712 3.4266 2.113 1.4337 2.5922 1.6933 2.9568 1.6017 0.47032-0.11804 0.82529-0.78305 0.67342-1.2616-0.05001-0.15756-1.0058-0.93172-2.1239-1.7203-2.8579-2.0157-3.4461-2.583-3.4461-3.3239 0-0.38295 0.13908-0.7535 0.39408-1.05 0.59081-0.68685 1.3169-0.62133 2.6221 0.23663l1.0569 0.69478 0.04545-3.0241 0.04545-3.0241-1.8742-1.8828c-1.8379-1.8463-1.886-1.8808-2.4852-1.7812-1.4744 0.24511-2.8533-1.41-2.2958-2.7558 0.86787-2.0952 3.9875-1.5681 3.9875 0.67381 0 0.28486-0.08263 0.67233-0.18362 0.86104-0.16407 0.30656 0.01107 0.54001 1.6444 2.1919 1.0054 1.0168 1.9295 2.0358 2.0534 2.2644 0.16314 0.30082 0.24104 1.3689 0.28202 3.8667l0.05662 3.451 1.1818 0.76449c0.64998 0.42047 1.2793 0.80192 1.3986 0.84768 0.17552 0.06735 0.2168-0.95167 0.2168-5.3506v-5.4338l-1.821-1.8636c-1.1-1.1258-1.9543-2.1574-2.1576-2.6056-0.32345-0.71304-0.33671-1.0676-0.34022-9.096-0.0031-7.0378-0.04023-8.3541-0.2358-8.3541-0.12768 0-0.47269-0.27396-0.76669-0.6088-0.48136-0.54823-0.5268-0.68936-0.45673-1.4186 0.17382-1.809 2.1986-2.5752 3.4634-1.3104 0.95834 0.95834 0.75192 2.4972-0.42839 3.1936l-0.5819 0.34333v8.1352c0 6.9511 0.03731 8.2251 0.25632 8.7533 0.23753 0.57279 2.6505 3.195 2.9401 3.195 0.07072 0 0.12859-1.0425 0.12859-2.3167 0-1.2742 0.07968-2.5273 0.17706-2.7847 0.09738-0.25741 1.0512-1.3033 2.1197-2.3242l1.9426-1.8562-1.5577-1.575c-1.5209-1.5378-1.5729-1.573-2.1997-1.4889-1.2854 0.17241-2.3234-0.69223-2.3408-1.9498-0.01084-0.78526 0.34421-1.3906 1.0781-1.8381 0.62906-0.38357 1.1314-0.41028 1.7452-0.09283 1.0458 0.5408 1.4889 1.5585 1.1309 2.5975l-0.21858 0.63444 1.1851 1.1772c0.65182 0.64747 1.2395 1.1772 1.3059 1.1772 0.19119 0 0.14032-4.748-0.05643-5.2676-0.09747-0.25741-0.87278-1.1787-1.7229-2.0474-0.85014-0.86866-1.6681-1.8188-1.8178-2.1114-0.22723-0.44437-0.27225-1.1294-0.27313-4.1562l-0.0011-3.6242-0.48344-0.27502c-1.3964-0.79438-1.3945-2.8344 0.0032-3.5572 1.1514-0.59541 2.5568-0.015925 2.9495 1.2161 0.1986 0.62315 0.18959 0.76685-0.08313 1.325-0.16824 0.34434-0.54615 0.7757-0.8398 0.95857l-0.53391 0.3325-0.0064 3.6333-0.0064 3.6333 1.6656 1.7142c2.3182 2.3858 2.4041 2.6023 2.406 6.0649 9.97e-4 1.9319-0.06751 2.9398-0.23191 3.4081-0.1689 0.48117-0.80082 1.2167-2.2859 2.6606l-2.0525 1.9956v18.013l0.38922 0.30616c0.21407 0.16839 0.47592 0.46815 0.58188 0.66614 0.14125 0.26393 0.19265 3.7752 0.19265 13.161v12.801l0.37406 0.07205c0.20574 0.03963 0.76683 0.08224 1.2469 0.09469l0.87281 0.02264zm-17.428-5.5198c0.37299-0.33755 0.39552-1.1059 0.04278-1.4586-0.33568-0.33568-1.2972-0.33753-1.5749-3e-3 -0.31977 0.3853-0.26582 1.2474 0.09454 1.5109 0.41927 0.30658 1.0689 0.2843 1.4375-0.0493zm-9.1437-13.965c0.66561-0.60236 0.16101-1.7199-0.7766-1.7199-0.58161 0-1.0806 0.46063-1.0806 0.9975 0 0.14218 0.11646 0.42479 0.2588 0.62801 0.31401 0.44832 1.1526 0.49782 1.5984 0.09435zm-3.4485-8.6311c0.336-0.336 0.336-1.1365 0-1.4725-0.33568-0.33568-1.2972-0.33753-1.5749-3e-3 -0.11787 0.14203-0.21432 0.4747-0.21432 0.73927 0 0.26457 0.09644 0.59724 0.21432 0.73927 0.27762 0.33451 1.2392 0.33267 1.5749-3e-3zm17.587-0.62196c0.21496-0.33806 0.14297-0.98883-0.14453-1.3065-0.36302-0.40114-1.1382-0.38693-1.5536 0.02847-0.79236 0.79236 0.09108 2.034 1.1604 1.6309 0.22673-0.08549 0.46873-0.24426 0.53777-0.35284zm-16.582-5.6601c0.36037-0.26351 0.41431-1.1256 0.09454-1.5109-0.27762-0.33451-1.2392-0.33267-1.5749 3e-3 -0.34049 0.34049-0.33364 1.0457 0.01389 1.4297 0.3246 0.35868 1.0313 0.39636 1.4664 0.07819zm17.538-3.6395c0.22863-0.41056 0.22863-0.50382 0-0.91438-0.51007-0.91594-1.9898-0.60776-1.9898 0.41441 0 1.0719 1.4661 1.4403 1.9898 0.49997zm-14.492-1.9867c0.28456-0.28456 0.24667-1.2258-0.06175-1.5342-0.14369-0.14369-0.475-0.26125-0.73625-0.26125-0.85125 0-1.2684 0.8457-0.8254 1.6734 0.19881 0.37148 1.2918 0.45366 1.6234 0.12207zm22.214-1.1149c0.42307-0.46748 0.29168-1.3561-0.24481-1.6557-0.36593-0.20437-0.49326-0.20493-0.91438-4e-3 -0.95727 0.45668-0.63036 1.9767 0.42513 1.9767 0.24597 0 0.57629-0.14263 0.73405-0.31695zm-16.614-6.4369c0.17454-0.17454 0.25224-0.48282 0.21969-0.87163-0.10423-1.2449-1.8134-1.2864-1.9324-0.04692-0.06611 0.68864 0.34675 1.1886 0.98152 1.1886 0.25361 0 0.58263-0.12152 0.73116-0.27005zm12.597-1.2678c0.14963-0.1143 0.32072-0.40978 0.3802-0.65664 0.08386-0.34804 0.01293-0.54402-0.31584-0.87281-0.50982-0.50982-0.98783-0.54026-1.4366-0.09149-0.90719 0.90719 0.35493 2.398 1.3722 1.6209zm-5.5285-3.4497c0.18288-0.18288 0.3325-0.51953 0.3325-0.74812 0-0.22859-0.14962-0.56525-0.3325-0.74812-0.18288-0.18287-0.51953-0.3325-0.74812-0.3325-0.48909 0-1.0806 0.53376-1.0806 0.97508 0 0.49007 0.64124 1.1862 1.0927 1.1862 0.22196 0 0.55318-0.14962 0.73606-0.3325zm10.271-4.2488c0.44408-0.31104 0.5056-1.2438 0.10824-1.6412-0.35747-0.35747-1.1226-0.32849-1.4703 0.055699-0.42242 0.46677-0.29285 1.3645 0.2353 1.6302 0.54052 0.272 0.68259 0.26636 1.1268-0.044748z"/>
   <path transform="matrix(.26458 0 0 .26458 47.969 106.05)" d="m101.99 57.318c1.3902-3.8193 4.8675-13.392 7.7272-21.273 5.6413-15.546 5.5112-15.251 7.0539-16.046 1.8779-0.96805 4.4868 0.03086 5.3241 2.0385 0.18267 0.43801 13.71 37.555 15.159 41.595l0.22366 0.62344h-6.9218l-5.9468-17.747c-3.2707-9.761-6.0003-17.807-6.0657-17.88-0.0654-0.07292-2.8126 7.8946-6.1047 17.706l-5.9858 17.838-6.9911 0.08962z"/>
   <path transform="matrix(.26458 0 0 .26458 47.969 106.05)" d="m142.48 41.895v-22.361l8.8528 0.0029c11.363 0.0037 12.366 0.10727 15.386 1.5885 1.2637 0.61996 1.8125 1.0213 3.0104 2.2018 1.6958 1.6711 2.4456 2.9037 3.1034 5.1012 0.37922 1.2669 0.44916 1.8148 0.45633 3.5744 0.0221 5.4321-2.3292 9.3007-7.087 11.66-0.79432 0.39394-1.4442 0.75933-1.4442 0.81198 0 0.0799 6.275 12.147 9.3997 18.076l0.89806 1.7041-7.8871-0.0048-9.173-19.031-8.8652-0.08856v19.124h-6.65zm19.409-2.9792c1.1451-0.30484 2.1603-0.8168 2.8251-1.4246 1.7372-1.5884 2.4668-3.4301 2.3295-5.8803-0.1419-2.5321-0.9939-4.0879-2.827-5.1622-1.4137-0.82847-2.3413-0.92425-8.9765-0.92692l-6.1097-0.0025v13.632l5.9434-2e-3c4.5541-0.0015 6.1472-0.05623 6.8153-0.23407z"/>
   <path transform="matrix(.26458 0 0 .26458 47.969 106.05)" d="m191.31 64.018c-0.89566-0.31963-1.6962-0.98154-2.0249-1.6743-0.15667-0.33016-3.2738-9.6672-6.9269-20.749-3.6531-11.082-6.7854-20.58-6.9606-21.108l-0.31861-0.95922 7.0114 0.08968 5.0578 16.955c2.7818 9.3253 5.0913 16.989 5.1323 17.03 0.041 0.04097 0.13908 0.0047 0.21801-0.08067 0.0789-0.08534 2.4156-7.7671 5.1925-17.071l5.049-16.915 3.4497-4.52e-4c1.8973-2.49e-4 3.4516 0.05566 3.454 0.12424 2e-3 0.06858-3.1584 9.7007-7.0238 21.405l-7.0281 21.28-0.74834 0.75273c-1.0746 1.0809-2.2376 1.3843-3.5334 0.92195z"/>
   <path transform="matrix(.26458 0 0 .26458 47.969 106.05)" d="m225.24 64.339c-5.203-0.8756-9.7137-4.2994-11.734-8.9071-1.1388-2.5967-1.2236-3.3606-1.3201-11.9-0.0915-8.0991 0.0484-11.069 0.62534-13.272 1.2786-4.8814 5.697-9.1291 10.932-10.51 1.37-0.36133 1.9808-0.42598 4.1033-0.43429 3.8149-0.01493 6.2648 0.65116 8.9271 2.4271 3.1844 2.1242 5.6137 5.3879 6.4476 8.6621 0.85797 3.3686 0.90581 19.06 0.0693 22.738-0.858 3.7724-3.694 7.3532-7.5161 9.4899-2.9542 1.6515-6.9829 2.3042-10.534 1.7065zm5.0666-6.6486c1.5405-0.40126 2.938-1.2047 4.0281-2.3158 2.454-2.5011 2.9037-4.5888 2.9037-13.48 0-7.922-0.37698-10.245-2.018-12.436-1.4124-1.886-2.967-2.9136-5.0877-3.363-4.8467-1.0271-9.4766 1.5902-10.745 6.0739-0.44157 1.5614-0.60216 4.1551-0.60216 9.7256 0 9.2022 0.40143 11.096 2.86 13.494 1.0157 0.99062 2.6426 1.9287 3.9575 2.282 1.1957 0.32126 3.5081 0.33094 4.7031 0.01967z"/>
   <path transform="matrix(.26458 0 0 .26458 47.969 106.05)" d="m250.7 41.895v-22.361h8.7936c4.935 0 9.538 0.07638 10.49 0.17407 5.8815 0.60355 10.211 4.2915 11.31 9.6347 0.39125 1.902 0.41262 3.3021 0.0795 5.2122-0.74873 4.2936-3.343 7.5883-7.3767 9.3682-0.51452 0.22704-0.96189 0.43853-0.99417 0.46997-0.0494 0.04813 6.4253 12.546 9.4087 18.161l0.907 1.7071-7.9173-0.08922-9.1682-18.952-8.8821-0.08856v19.124h-6.65zm19.541-2.9995c2.0253-0.52411 3.5861-1.8622 4.5488-3.8998 0.3935-0.83286 0.43202-1.0999 0.43202-2.996 0-2.0233-0.0156-2.1132-0.55425-3.2075-0.64383-1.3078-1.6453-2.1998-3.1445-2.8007-0.93315-0.37406-1.1161-0.38465-7.5647-0.43805l-6.6084-0.05472v13.653h5.9501c4.8224 0 6.1378-0.0486 6.9409-0.25641z"/>
   <path transform="matrix(.26458 0 0 .26458 47.969 106.05)" d="m284.45 64.193c0-0.18616 15.205-41.866 15.493-42.47 0.42795-0.89689 1.6029-1.7818 2.6752-2.0148 1.5-0.32595 3.1823 0.34994 4.019 1.6147 0.30187 0.45631 14.842 40.065 15.623 42.559l0.11716 0.37406h-6.9229l-5.9564-17.872c-3.276-9.8295-6.0067-17.872-6.0681-17.872-0.0614 0-2.7921 8.0423-6.0681 17.872l-5.9564 17.872h-3.4777c-1.9127 0-3.4777-0.02811-3.4777-0.06248z"/>
   <path transform="matrix(.26458 0 0 .26458 47.969 106.05)" d="m327.51 41.895v-22.361h6.65v19.285h17.789v-19.285h6.65v44.721h-6.65v-19.617h-17.789v19.617h-6.65z"/>
  </g>
 </g>
</svg>
