<svg width="61.072mm" height="49.253mm" version="1.1" viewBox="0 0 61.072 49.253" xmlns="http://www.w3.org/2000/svg">
 <g transform="translate(-219.2 -124.19)">
  <path d="m278.25 159.41c-0.21625 0.59902-0.61665 1.2693-1.1638 1.966-0.95744 1.2203-2.3544 2.5142-3.9109 3.7497-2.3319 1.8595-5.0214 3.5952-7.1381 4.8683-1.578 0.94968-2.8356 1.6468-3.4029 1.9526-0.96414-0.52353-3.9419-2.1724-7.0661-4.2848-1.875-1.2665-3.8012-2.7044-5.3654-4.1473-0.78211-0.71861-1.4722-1.4422-2.0193-2.1385-0.54787-0.69673-0.94827-1.367-1.1649-1.966-0.41592-1.143-0.61348-2.31-0.61348-3.4572 0-2.0659 0.63782-4.0696 1.7896-5.7425 1.1529-1.6753 2.8134-3.0159 4.8704-3.7634 1.1426-0.41945 2.31-0.61454 3.4572-0.61454 2.0546 0 4.0474 0.63006 5.7161 1.7709 0.23847 0.16193 0.55315 0.16193 0.79198 0 1.6676-1.1409 3.6611-1.7709 5.7157-1.7709 1.1472 0 2.3146 0.19509 3.4572 0.61454 2.057 0.74753 3.719 2.0881 4.8708 3.7634 1.1515 1.6729 1.7896 3.6766 1.7882 5.7425 0 1.1472-0.19508 2.3142-0.61242 3.4572zm-53.589 9.4481c-0.54575 0-1.0629-0.1263-1.5424-0.36407-0.71896-0.35489-1.349-0.95638-1.7995-1.735-0.4512-0.77646-0.71861-1.7265-0.71861-2.7559v-26.605h50.206v7.2206c-0.68862-0.12664-1.3765-0.19085-2.0602-0.19085-2.1809 0-4.2979 0.62548-6.1119 1.7572-1.8136-1.1317-3.9306-1.7572-6.1119-1.7572-1.3081 0-2.6395 0.22613-3.9377 0.69674-2.3364 0.8516-4.2369 2.3827-5.546 4.2891-1.3116 1.9061-2.0369 4.1846-2.0369 6.5391 0 1.307 0.22402 2.6409 0.69744 3.9391 0.29034 0.79622 0.77153 1.5748 1.3794 2.3516 1.0675 1.3557 2.5329 2.703 4.1406 3.9811 1.1649 0.92957 2.4031 1.8168 3.6146 2.6335zm-4.0605-34.682c-1e-3 -1.3712 0.47661-2.6003 1.2241-3.4728 0.37536-0.43462 0.81351-0.77858 1.2919-1.0164 0.48048-0.23671 0.9973-0.36371 1.5445-0.36371h6.9007c-0.0145 0.078-0.0286 0.15769-0.0487 0.23777-0.17216 0.68968-0.5648 1.2601-1.0873 1.664-0.52141 0.40358-1.1719 0.63465-1.8486 0.63465-0.24165 0-0.48577-0.031-0.73236-0.091-0.37677-0.0931-0.75671 0.13547-0.84949 0.51259-0.0931 0.37465 0.13511 0.75635 0.51011 0.84949 0.35737 0.0889 0.71685 0.13088 1.0717 0.13088 0.99519 0 1.9438-0.3369 2.7051-0.92498 0.76306-0.58809 1.3437-1.4312 1.5932-2.4388 0.0466-0.19085 0.0797-0.38382 0.10195-0.57467h9.3885c-0.0113 0.0646-0.0247 0.13088-0.0399 0.19791-0.16439 0.70061-0.55703 1.2802-1.0809 1.693-0.52387 0.41063-1.1786 0.64558-1.8641 0.64558-0.22824 0-0.46143-0.0272-0.69673-0.0822-0.37606-0.0889-0.75283 0.14394-0.84314 0.52176-0.0875 0.37677 0.14675 0.75636 0.52352 0.84279 0.33973 0.0797 0.68016 0.11959 1.0164 0.11959 1.0068 0 1.9639-0.34572 2.7291-0.94262 0.76588-0.59937 1.343-1.4577 1.5826-2.4762 0.0399-0.17322 0.0684-0.34678 0.0885-0.51964h9.3652c-0.16298 0.68156-0.54222 1.2538-1.053 1.6619-0.52811 0.42157-1.1913 0.66358-1.887 0.66358-0.21096 0-0.42509-0.0222-0.6417-0.0667-0.37818-0.0822-0.75106 0.1577-0.83291 0.53728-0.0818 0.37924 0.15981 0.75213 0.53905 0.83185 0.31326 0.0688 0.62618 0.10196 0.93556 0.10196 1.0231 0 1.9925-0.35701 2.7616-0.97155 0.76941-0.61278 1.3444-1.4912 1.5663-2.5277 0.0166-0.0776 0.0311-0.15275 0.0445-0.23071h8.5453c-0.0113 0.0444-0.0201 0.0868-0.0339 0.13299-0.1905 0.66605-0.58667 1.2122-1.1024 1.596-0.51611 0.38171-1.1494 0.59655-1.8062 0.59655-0.27517 0-0.55492-0.0378-0.83538-0.11748-0.37289-0.10654-0.762 0.10866-0.86889 0.48119-0.10654 0.37289 0.10901 0.7613 0.48154 0.86784 0.40605 0.11535 0.8188 0.17286 1.2227 0.17286 0.96485 0 1.8891-0.31715 2.6427-0.8763 0.75247-0.55916 1.3381-1.3646 1.615-2.334 0.0505-0.17322 0.0868-0.34678 0.11466-0.51964h2.1911c0.5468 0 1.065 0.127 1.5445 0.36371 0.71896 0.35278 1.348 0.95638 1.7985 1.7353 0.4505 0.77716 0.71861 1.7244 0.71861 2.7538v1.8196h-50.206zm6.1218-7.7417c0.52246-0.40393 1.1716-0.63253 1.8503-0.63253 0.23989 0 0.48613 0.0289 0.73236 0.0889 0.69039 0.17286 1.263 0.56338 1.6651 1.0873 0.21766 0.28363 0.3817 0.60149 0.4893 0.94086h-5.7711c0.19297-0.61031 0.55915-1.1158 1.034-1.4845zm10.788 0.0134c0.52387-0.41028 1.1783-0.64594 1.8641-0.64594 0.22825 0 0.46144 0.0268 0.69533 0.0797 0.70026 0.1644 1.2795 0.55492 1.6909 1.0809 0.22331 0.2861 0.39264 0.60995 0.50271 0.95638h-5.7714c0.18873-0.60113 0.54892-1.1049 1.0185-1.4711zm10.802-0.19085c0.52846-0.42193 1.1906-0.66358 1.8863-0.66358 0.21167 0 0.4258 0.0201 0.64135 0.0663 0.71332 0.15558 1.3067 0.54187 1.7283 1.07 0.27623 0.34608 0.47484 0.75389 0.57961 1.1892h-5.8886c0.16333-0.68333 0.54151-1.2559 1.053-1.6619zm8.9577 1.5286c0.19086-0.66569 0.58844-1.2114 1.1031-1.5932 0.51576-0.38382 1.1494-0.60149 1.8059-0.59902 0.27517 0 0.55598 0.0374 0.83644 0.11536 0.66604 0.19297 1.2107 0.59055 1.5935 1.1053 0.24624 0.32843 0.42157 0.70555 0.51717 1.1049h-5.909c0.0219-0.0402 0.0399-0.0847 0.0529-0.13335zm15.414 17.339-0.23953 0.66075 0.23848-0.66075c-0.15664-0.0557-0.31504-0.10866-0.47343-0.15981v-10.789c0-1.6972-0.58702-3.2438-1.5635-4.3847-0.48825-0.57009-1.0753-1.0358-1.7353-1.3624-0.6611-0.32809-1.3977-0.51012-2.1657-0.51012h-2.189c-0.1143-0.70556-0.39722-1.3716-0.81985-1.9413-0.55704-0.75248-1.3646-1.3381-2.334-1.6157-0.4064-0.11747-0.81915-0.17321-1.2231-0.17321-0.9652 0-1.8881 0.3175-2.6423 0.87665-0.75247 0.55704-1.3381 1.3624-1.6157 2.3343-0.0512 0.18203-0.0265 0.36371 0.0543 0.51929h-1.3988c-0.12206-0.76094-0.43956-1.4711-0.91087-2.0638-0.61383-0.76976-1.4922-1.3444-2.5308-1.5663-0.31185-0.067-0.62582-0.10019-0.93627-0.10019-1.023 0-1.9914 0.35489-2.7615 0.96979-0.76906 0.61489-1.3427 1.4912-1.5653 2.5298-0.018 0.0797-0.018 0.15522-9e-3 0.23072h-2.1512c-0.14076-0.66569-0.42898-1.2915-0.84525-1.8218-0.59796-0.76553-1.4559-1.3427-2.4754-1.5822-0.33937-0.0773-0.6798-0.11536-1.016-0.11536-1.0065 0-1.9639 0.34184-2.7294 0.94333-0.76553 0.59655-1.3423 1.4552-1.5797 2.474-9e-3 0.0332-0.012 0.0684-0.0155 0.10195h-2.1417c-0.13829-0.65723-0.42122-1.2718-0.82727-1.7974-0.58773-0.76341-1.4312-1.3423-2.4384-1.591-0.35771-0.0889-0.71684-0.13088-1.07-0.13088-0.99589 0-1.9445 0.33479-2.7065 0.92322-0.76377 0.58773-1.343 1.4333-1.5924 2.4384-0.0145 0.06-0.0187 0.11994-0.0187 0.17744-0.62054 0.0512-1.215 0.2219-1.7575 0.49037-0.99201 0.48859-1.8164 1.294-2.3929 2.2902-0.57715 0.99413-0.90911 2.1833-0.90911 3.4569v29.827c1e-3 1.6976 0.58914 3.2459 1.5646 4.3868 0.48966 0.57009 1.0763 1.0365 1.7374 1.3646 0.65899 0.32631 1.3959 0.50835 2.1636 0.50835h32.33c0.5267 0.33268 1.0365 0.64558 1.5176 0.93415 1.9904 1.1984 3.4805 1.9971 3.7525 2.141 2e-3 2e-3 6e-3 2e-3 9e-3 7e-3 0.0176 9e-3 0.0296 0.0131 0.0353 0.018v-3e-3c0.0289 0.0159 0.0593 0.0339 0.0907 0.0427 7e-3 4e-3 0.0127 4e-3 0.0194 4e-3 7e-3 4e-3 0.0145 4e-3 0.0208 7e-3 0.0399 0.0109 0.0797 0.0197 0.12206 0.024 0.0134 2e-3 0.0286 2e-3 0.043 2e-3 0.0335 3e-3 0.067 3e-3 0.0991 0 0.0265-2e-3 0.0533-9e-3 0.0787-0.013 0.0212-4e-3 0.0413-7e-3 0.061-0.0159 7e-3 0 0.0134 0 0.0212-4e-3 0.0275-9e-3 0.0543-0.0219 0.0808-0.0377 8e-3 -2e-3 0.0155-4e-3 0.0236-6e-3l1e-3 -3e-3h2e-3c4e-3 -2e-3 9e-3 -6e-3 0.018-0.0109 5e-3 -2e-3 0.0102-4e-3 0.0155-9e-3 0.39194-0.20602 3.8245-2.0408 7.4856-4.5173 1.9117-1.2919 3.8866-2.7608 5.5308-4.276 0.82232-0.75883 1.5621-1.5289 2.1713-2.3033 0.6089-0.77681 1.0904-1.5554 1.3801-2.3516 0.47272-1.2982 0.6978-2.6321 0.6978-3.9391 0-2.3544-0.72567-4.633-2.0373-6.5391-1.3092-1.9064-3.2096-3.4375-5.546-4.2891"/>
  <path d="m269.75 160.7h-4.6563c-0.1845 0-0.36512 0.0759-0.496 0.20673-0.13088 0.13088-0.20638 0.31291-0.20638 0.49459v4.6598h-3.5126v-4.6598c0-0.18168-0.0755-0.36371-0.20637-0.49459-0.13088-0.13088-0.3115-0.20673-0.49495-0.20673h-4.6577v-3.5126h4.6577c0.18345 0 0.36407-0.0751 0.49495-0.20602 0.13088-0.12877 0.20637-0.3108 0.20637-0.4946v-4.6577h3.5126v4.6577c0 0.1838 0.0755 0.36583 0.20638 0.4946 0.13088 0.13088 0.3115 0.20602 0.496 0.20602h4.6563zm0.70097-4.9167h-4.6553v-4.656c0-0.18379-0.0755-0.36371-0.20637-0.49459-0.13088-0.13088-0.31045-0.20602-0.49566-0.20602h-4.9163c-0.18626 0-0.36618 0.0751-0.49706 0.20602-0.13088 0.13088-0.20497 0.3108-0.20497 0.49459v4.656h-4.6563c-0.18556 0-0.36654 0.0748-0.49742 0.20603-0.12947 0.13088-0.2039 0.31044-0.2039 0.49741v4.9146c0 0.18627 0.0744 0.36795 0.2039 0.49707 0.13088 0.13088 0.31186 0.20672 0.49742 0.20672h4.6563v4.657c0 0.18451 0.0741 0.36372 0.20497 0.4946 0.13088 0.13088 0.3108 0.20461 0.49706 0.20461h4.9163c0.18521 0 0.36478-0.0737 0.49566-0.20461 0.13088-0.13088 0.20637-0.31009 0.20637-0.4946v-4.657h4.6553c0.18556 0 0.36618-0.0758 0.49741-0.20672 0.12947-0.12912 0.20391-0.3108 0.20391-0.49707v-4.9146c0-0.18697-0.0744-0.36653-0.20391-0.49741-0.13123-0.13124-0.31185-0.20603-0.49741-0.20603"/>
 </g>
</svg>
