<svg width="61.074mm" height="57.986mm" version="1.1" viewBox="0 0 61.074 57.986" xmlns="http://www.w3.org/2000/svg">
 <g transform="translate(-117.56 -68.944)">
  <g transform="matrix(.056493 0 0 -.056493 -742.19 181.67)">
   <path d="m16200 1531.8c-46.6-46.59-110.7-75.31-181.8-75.31-13.9 0-27.6 1.19-41.1 3.31-1.9 0.31-3.8 0.12-5.5-0.38l-226.1-62.69 58.5 166.1c1.2 3.56 0.8 7.62-1.3 10.87-26.2 40.28-41.5 88.18-41.5 139.76 0 71.06 28.8 135.19 75.3 181.72 46.6 46.52 110.8 75.24 181.7 75.3 71.1-0.06 135.2-28.78 181.8-75.3 46.5-46.53 75.2-110.66 75.2-181.72 0-71.01-28.7-135.2-75.2-181.66zm-133.3-299.06h-822.8v395.1c0 19.67 7.5 37.28 19.5 49.96 12.1 12.68 28.3 20.29 46.4 20.29h427c2.7-48.46 17.6-93.79 41.7-132.69l-64.3-182.91c-1.5-4.37-0.5-9.18 2.7-12.61 3.1-3.38 7.9-4.69 12.3-3.44l246.9 68.38c13.8-2 27.8-3.18 42.1-3.18 16.6 0 32.7 1.43 48.5 4.18zm0-48.7c0-19.67-7.5-37.28-19.4-49.96-12.1-12.68-28.3-20.36-46.4-20.36h-691.1c-18.1 0-34.3 7.68-46.4 20.36-12 12.68-19.5 30.29-19.5 49.96v23.85h822.8zm-469.1-190.28v95.107h115.4v-95.107zm420.6 1001.6c-77.7 0-148.3-31.6-199.3-82.55-48.8-48.9-79.9-115.78-82.3-189.78h-426.8c-25.3 0-48.1-10.87-64.4-28.16-16.3-17.18-26.4-40.97-26.4-67.01v-443.8c0-13.43 2.7-26.29 7.5-37.91 1.6-3.81 3.5-7.62 5.6-11.18 3.7-6.49 8.2-12.55 13.3-17.98 16.3-17.24 39.1-28.1 64.4-28.1h263v-95.107h-124.6c-6.9 0-12.4-5.559-12.4-12.365 0-6.933 5.5-12.489 12.4-12.489h414.3c6.8 0 12.4 5.556 12.4 12.489 0 6.806-5.6 12.365-12.4 12.365h-124.7v95.107h263.1c25.2 0 48.1 10.86 64.4 28.1 16.3 17.3 26.3 41.02 26.3 67.07v257.21c48.4 13.05 91.6 38.53 125.9 72.94 51 50.96 82.6 121.52 82.6 199.27 0 77.8-31.6 148.31-82.6 199.33-50.9 50.95-121.5 82.55-199.3 82.55"/>
  </g>
  <g transform="matrix(.056118 0 0 -.056118 -742.19 181.67)">
   <path d="m16275 1681.1h-97.4c-3.3 0-6.5-1.31-8.9-3.58-2.3-2.39-3.6-5.59-3.6-8.86v-97.44h-75.9v97.44c0 3.27-1.3 6.47-3.6 8.86-2.4 2.27-5.6 3.58-8.9 3.58h-97.4v75.88h97.4c3.3 0 6.5 1.32 8.9 3.71 2.3 2.26 3.6 5.53 3.6 8.8v97.38h75.9v-97.38c0-3.27 1.3-6.54 3.6-8.8 2.4-2.39 5.6-3.71 8.9-3.71h97.4zm12.6 100.9h-97.5v97.44c0 3.27-1.4 6.47-3.7 8.8s-5.5 3.71-8.8 3.71h-100.9c-3.3 0-6.5-1.38-8.8-3.71s-3.7-5.53-3.7-8.8v-97.44h-97.4c-3.2 0-6.5-1.32-8.8-3.71-2.4-2.32-3.7-5.53-3.7-8.8v-100.83c0-3.33 1.3-6.6 3.7-8.86 2.3-2.33 5.6-3.72 8.8-3.72h97.4v-97.37c0-3.33 1.4-6.54 3.7-8.86 2.3-2.33 5.5-3.65 8.8-3.65h100.9c3.3 0 6.5 1.32 8.8 3.65 2.3 2.32 3.7 5.53 3.7 8.86v97.37h97.5c3.2 0 6.4 1.39 8.8 3.72 2.3 2.26 3.6 5.53 3.6 8.86v100.83c0 3.27-1.3 6.48-3.6 8.8-2.4 2.39-5.6 3.71-8.8 3.71"/>
  </g>
 </g>
</svg>
